<svg version="1.1" xmlns="http://www.w3.org/2000/svg" xmlns:xlink="http://www.w3.org/1999/xlink" width="1041" height="645" viewBox="0,0,1041,645"><defs><linearGradient x1="100.9586" y1="103.28672" x2="5.2339" y2="103.28672" gradientUnits="userSpaceOnUse" id="color-1"><stop offset="0" stop-color="#ffffff"/><stop offset="1" stop-color="#ffffff" stop-opacity="0"/></linearGradient><linearGradient x1="98.40108" y1="107.30569" x2="98.40108" y2="11.581" gradientUnits="userSpaceOnUse" id="color-2"><stop offset="0" stop-color="#ffffff"/><stop offset="1" stop-color="#ffffff" stop-opacity="0"/></linearGradient><linearGradient x1="98.40108" y1="88.3069" x2="98.40108" y2="184.0316" gradientUnits="userSpaceOnUse" id="color-3"><stop offset="0" stop-color="#ffffff"/><stop offset="1" stop-color="#ffffff" stop-opacity="0"/></linearGradient><linearGradient x1="94.3821" y1="103.28672" x2="190.10679" y2="103.28672" gradientUnits="userSpaceOnUse" id="color-4"><stop offset="0" stop-color="#ffffff"/><stop offset="1" stop-color="#ffffff" stop-opacity="0"/></linearGradient><linearGradient x1="103.87073" y1="99.35638" x2="36.18316" y2="167.04397" gradientUnits="userSpaceOnUse" id="color-5"><stop offset="0" stop-color="#ffffff"/><stop offset="1" stop-color="#ffffff" stop-opacity="0"/></linearGradient><linearGradient x1="104.90414" y1="104.00669" x2="37.21655" y2="36.3191" gradientUnits="userSpaceOnUse" id="color-6"><stop offset="0" stop-color="#ffffff"/><stop offset="1" stop-color="#ffffff" stop-opacity="0"/></linearGradient><linearGradient x1="91.46997" y1="90.57252" x2="159.15754" y2="158.26009" gradientUnits="userSpaceOnUse" id="color-7"><stop offset="0" stop-color="#ffffff"/><stop offset="1" stop-color="#ffffff" stop-opacity="0"/></linearGradient><linearGradient x1="99.22044" y1="104.00669" x2="166.90802" y2="36.3191" gradientUnits="userSpaceOnUse" id="color-8"><stop offset="0" stop-color="#ffffff"/><stop offset="1" stop-color="#ffffff" stop-opacity="0"/></linearGradient><linearGradient x1="99.22044" y1="103.27596" x2="166.90802" y2="35.58837" gradientUnits="userSpaceOnUse" id="color-9"><stop offset="0" stop-color="#ffffff"/><stop offset="1" stop-color="#ffffff" stop-opacity="0"/></linearGradient><radialGradient cx="98.075" cy="97.50602" r="90.925" gradientUnits="userSpaceOnUse" id="color-10"><stop offset="0" stop-color="#ffe46f"/><stop offset="1" stop-color="#ffe46f" stop-opacity="0"/></radialGradient><radialGradient cx="101.93843" cy="81.16682" r="39.425" gradientUnits="userSpaceOnUse" id="color-11"><stop offset="0" stop-color="#ffe46f"/><stop offset="1" stop-color="#ffc200"/></radialGradient><radialGradient cx="354.34906" cy="321.36562" r="6.625" gradientUnits="userSpaceOnUse" id="color-12"><stop offset="0" stop-color="#ffcd70"/><stop offset="1" stop-color="#fa9448"/></radialGradient><radialGradient cx="374.44578" cy="222.84365" r="35.99413" gradientUnits="userSpaceOnUse" id="color-13"><stop offset="0" stop-color="#ffcd70"/><stop offset="1" stop-color="#fa9448"/></radialGradient><radialGradient cx="387.21697" cy="324.33806" r="6.625" gradientUnits="userSpaceOnUse" id="color-14"><stop offset="0" stop-color="#ffcd70"/><stop offset="1" stop-color="#fa9448"/></radialGradient></defs><g transform="translate(378.99054,203.49191)"><g data-paper-data="{&quot;isPaintingLayer&quot;:true}" fill-rule="nonzero" stroke-linejoin="miter" stroke-miterlimit="10" stroke-dasharray="" stroke-dashoffset="0" style="mix-blend-mode: normal"><path d="M-378.99054,441.5081v-645h1041v645z" fill="#5d89ec" stroke="none" stroke-width="0" stroke-linecap="butt"/><path d="M500.42528,256.87768c0,32.4954 -24.58654,58.83812 -54.91558,58.83812c-30.32904,0 -54.91558,-26.34272 -54.91558,-58.83812c0,-32.4954 24.58654,-58.83812 54.91558,-58.83812c30.32904,0 54.91558,26.34272 54.91558,58.83812z" fill="#00143b" stroke="#000000" stroke-width="0.5" stroke-linecap="butt"/><path d="M5.2339,96.32999l95.72469,-0.00001v13.91347h-95.72469z" data-paper-data="{&quot;index&quot;:null}" fill="url(#color-1)" stroke="none" stroke-width="0" stroke-linecap="butt"/><path d="M105.35781,11.581v95.72469h-13.91347v-95.72469z" fill="url(#color-2)" stroke="none" stroke-width="0" stroke-linecap="butt"/><path d="M91.44433,184.0316v-95.72469h13.91347v95.72469z" fill="url(#color-3)" stroke="none" stroke-width="0" stroke-linecap="butt"/><path d="M190.10679,110.24345h-95.72469v-13.91347l95.72469,0.00001z" fill="url(#color-4)" stroke="none" stroke-width="0" stroke-linecap="butt"/><path d="M31.264,162.12482l67.68758,-67.68759l9.83831,9.83832l-67.68758,67.68758z" data-paper-data="{&quot;index&quot;:null}" fill="url(#color-5)" stroke="none" stroke-width="0" stroke-linecap="butt"/><path d="M42.13572,31.39995l67.68758,67.68758l-9.83831,9.83831l-67.68758,-67.68758z" fill="url(#color-6)" stroke="none" stroke-width="0" stroke-linecap="butt"/><path d="M154.23839,163.17924l-67.68758,-67.68757l9.83831,-9.83831l67.68758,67.68758z" fill="url(#color-7)" stroke="none" stroke-width="0" stroke-linecap="butt"/><path d="M171.82719,41.23824l-67.68758,67.68758l-9.83832,-9.83831l67.68758,-67.68757z" fill="url(#color-8)" stroke="none" stroke-width="0" stroke-linecap="butt"/><path d="M171.82719,40.50753l-67.68758,67.68758l-9.83832,-9.83832l67.68758,-67.68757z" fill="url(#color-9)" stroke="none" stroke-width="0" stroke-linecap="butt"/><path d="M7.15,97.50601c0,-50.2165 40.7085,-90.92499 90.925,-90.92499c50.2165,0 90.92501,40.7085 90.92501,90.925c0,50.2165 -40.70851,90.92501 -90.92501,90.92501c-50.2165,0 -90.92499,-40.70851 -90.92499,-90.92501z" fill="url(#color-10)" stroke="none" stroke-width="0" stroke-linecap="butt"/><path d="M58.15,99.00601c0,-21.77383 17.65117,-39.425 39.425,-39.425c21.77383,0 39.42501,17.65117 39.42501,39.425c0,21.77383 -17.65117,39.425 -39.425,39.425c-21.77383,0 -39.425,-17.65117 -39.425,-39.425z" fill="url(#color-11)" stroke="none" stroke-width="0" stroke-linecap="butt"/><path d="M13.678,378.85175v-271.31831h367.60924v271.31831z" fill="#ed5c5c" stroke="none" stroke-width="0" stroke-linecap="butt"/><path d="M353.91196,363.6717l6.57202,-39.8282l10.70646,0.70456l5.12275,39.48133z" data-paper-data="{&quot;index&quot;:null}" fill="#5845ff" stroke="#000000" stroke-width="1" stroke-linecap="butt"/><path d="M375.97739,361.91928c0,4.26295 -3.5648,5.34375 -11.38021,5.34375c-7.8154,0 -13.75521,-0.68497 -13.75521,-4.94792c0,-4.26295 6.33564,-7.71875 14.15104,-7.71875c7.8154,0 10.98438,3.05997 10.98438,7.32292z" fill="#653a1b" stroke="#000000" stroke-width="1" stroke-linecap="butt"/><path d="M378.69238,364.61017l7.56086,-39.80111l12.01758,0.74814l5.57116,39.50186z" fill="#5845ff" stroke="#000000" stroke-width="1" stroke-linecap="butt"/><path d="M351.99123,315.58481l14.69608,-34.67327l11.72593,4.74367l-19.30204,33.69578z" fill="#5845ff" stroke="#000000" stroke-width="1" stroke-linecap="butt"/><path d="M348.58513,318.09948c1.80385,-3.18333 5.84676,-4.30162 9.03008,-2.49777c3.18333,1.80385 4.30162,5.84676 2.49777,9.03008c-1.80385,3.18333 -5.84676,4.30162 -9.03008,2.49777c-3.18333,-1.80385 -4.30162,-5.84676 -2.49777,-9.03008z" fill="url(#color-12)" stroke="#000000" stroke-width="1" stroke-linecap="butt"/><path d="M354.69238,332.80906l14.25,-66.5l22.64959,1.25l10.5,66z" fill="#5845ff" stroke="#000000" stroke-width="1" stroke-linecap="butt"/><path d="M410.82,226.84784c9.77903,18.64724 7.19923,39.27406 -5.76213,46.07129c-7.6141,3.993 -25.18835,10.05121 -38.23098,6.18126c-2.79393,-0.82901 -10.79122,-10.94017 -10.41654,-15.74256c0.02999,-0.38436 1.39599,-0.77749 3.05272,-1.1122c1.86307,-0.37641 5.67537,-4.88927 5.63163,-4.93861c-0.85017,-0.95883 -8.23002,4.04781 -9.33927,1.93263c-0.07545,-0.14386 0.02754,-2.7538 0.39794,-6.46237c0.28754,-2.87896 -7.42979,0.21126 -5.10535,-4.20373c0.34669,-0.65849 1.3565,-4.62891 3.55083,-7.58243c2.43287,-3.27459 6.06404,-5.5569 6.2907,-6.26079c3.85358,-11.96725 11.27836,-22.19322 17.3308,-25.36726c12.96136,-6.79723 22.8206,-1.16246 32.59963,17.48478z" fill="url(#color-13)" stroke="#000000" stroke-width="1" stroke-linecap="butt"/><path d="M417.4181,235.59441c-1.80245,3.20078 3.71539,6.83251 4.07249,8.38262c1.0158,4.40943 -3.77121,2.99606 -3.52588,6.39448c0.11233,1.55607 4.67668,9.24137 0.72621,9.5012c-1.77137,0.1165 -2.28065,0.24163 -3.3541,-1.32359c-0.58298,-0.85006 -0.36582,-3.71238 -1.0847,-3.02345c-1.79225,1.71755 -4.54844,4.4479 -7.06466,2.95847c-1.60208,-0.94832 -1.18649,-3.85085 -1.69264,-4.22293c-0.68848,-0.50612 -2.37565,-1.27472 -2.2433,-2.69373c0.22613,-2.42452 1.7348,-3.46844 2.77891,-5.32832c2.4304,-4.3293 2.57803,-7.79342 1.04368,-12.4158c-0.125,-0.37657 -0.37193,0.67944 -0.57366,1.00605c-0.6143,0.99457 -0.67857,1.83008 -1.07567,2.91134c-0.07071,0.19253 -3.72634,3.48139 -3.99287,3.48453c-0.37932,0.00445 -0.90368,2.75045 -1.57562,2.84174c-0.19406,0.02636 -2.41534,0.32261 -2.51558,0.16544c-3.55646,-5.57588 2.74819,-6.77833 0.06906,-13.12177c-0.30606,-0.72467 0.72977,-3.22041 0.49809,-3.41313c-1.72583,-1.43559 -2.41381,-2.99613 -3.73946,-4.67992c-0.18738,-0.238 -0.51475,-0.47312 -0.93555,-0.70104c0.40606,1.49245 0.43249,3.14007 -0.24105,4.15722c-0.69332,1.04703 -2.11036,0.91546 -3.16554,1.37318l-0.21382,-0.07213v0.08765h-1.75c-0.73727,0 -1.36805,-0.53975 -1.62579,-1.30367c-0.01035,0.03457 -0.0222,0.06844 -0.03583,0.10149c-0.82747,2.00779 -10.13424,-2.39998 -9.36162,-3.1422c0.95709,-0.91942 1.84487,-1.63858 2.7111,-2.2014c-1.98778,0.32331 -3.81938,0.23276 -4.56791,-1.22646c-0.53028,-1.03375 -1.79011,1.32882 -2.33234,2.35385c-0.95435,1.80404 1.24874,4.23245 -2.8633,5.31425c-3.96314,1.04263 -7.6629,-9.46872 -7.27774,-12.2957c0.6892,-5.05871 3.39612,-6.88741 6.88671,-7.76679c0.04444,-0.0112 0.2084,-1.50044 0.20987,-1.50369c0.57418,-1.27453 1.08154,-1.97068 2.1894,-2.59195c1.21418,-0.68089 3.8409,-0.32158 4.82755,-0.41484c0.67643,-0.06393 1.92921,-1.71191 2.73271,-1.95637c2.6698,-0.81225 5.95658,-1.38979 8.70395,-1.38979c1.8161,0 2.84725,2.50752 4.31853,2.74128c2.19841,0.34927 3.73044,-0.40223 5.7987,1.17651c1.59997,1.22128 1.87914,4.29775 3.25889,5.64628c2.15891,2.11008 4.65913,3.97138 6.34085,6.75524c0.68842,1.13958 0.01562,2.31746 0.42289,3.02585c0.66735,1.16078 2.20552,1.76516 3.13052,2.67115c2.33229,2.28433 6.4814,10.39893 6.08234,13.70593z" fill="#000000" stroke="none" stroke-width="0.5" stroke-linecap="butt"/><path d="M389.46706,279.21305c1.3999,0 2.53474,1.42454 2.53474,3.18181c0,0.3765 -0.0521,0.73773 -0.14773,1.07295l0.579,0.38263c0,0 0.61476,3.08682 -1.84429,3.85852c-0.38236,0.11999 -0.72012,0.1467 -1.01792,0.10622c-0.30379,0.30087 -0.62666,0.56051 -0.98657,0.74002c-0.99775,0.49761 -2.1495,0.05114 -3.2172,0.19246c-2.93761,0.38883 -5.59787,0.96136 -8.57369,0.96539c0,0 -2.53474,0 -2.53474,-3.18182c0,-3.18182 2.53474,-3.18182 2.53474,-3.18182c2.87637,0.00427 7.50045,0.42586 10.16026,-1.36903c0.16181,-1.56144 1.22544,-2.76734 2.51343,-2.76734z" fill="#5845ff" stroke="none" stroke-width="0.5" stroke-linecap="butt"/><path d="M382.91562,322.07103l-4.30811,-37.4119l12.54052,-1.65382l-0.1811,38.83222z" fill="#5845ff" stroke="#000000" stroke-width="1" stroke-linecap="butt"/><path d="M387.43288,291.34637c-1.10442,0 -2.01646,-1.18292 -2.15521,-2.71462c-2.28073,-1.76069 -6.24577,-1.34715 -8.7122,-1.34295c0,0 -2.17348,0 -2.17348,-3.12122c0,-3.12122 2.17348,-3.12121 2.17348,-3.12121c2.5517,0.00396 4.83281,0.56558 7.35174,0.947c0.91553,0.13862 1.90313,-0.29934 2.75868,0.18879c0.30861,0.17608 0.58546,0.43079 0.84596,0.72592c0.25536,-0.03971 0.54498,-0.0135 0.87284,0.1042c2.10858,0.757 1.58143,3.78502 1.58143,3.78502l-0.49648,0.37533c0.082,0.32882 0.12668,0.68317 0.12668,1.0525c0,1.72379 -0.9731,3.1212 -2.17348,3.1212z" data-paper-data="{&quot;index&quot;:null}" fill="#5845ff" stroke="none" stroke-width="0.5" stroke-linecap="butt"/><path d="M380.59197,324.33806c0,-3.65888 2.96612,-6.625 6.625,-6.625c3.65888,0 6.625,2.96612 6.625,6.625c0,3.65888 -2.96612,6.625 -6.625,6.625c-3.65888,0 -6.625,-2.96612 -6.625,-6.625z" fill="url(#color-14)" stroke="#000000" stroke-width="1" stroke-linecap="butt"/><path d="M390.28193,354.38048c8.31743,0 15.06004,3.53744 15.06004,7.90108c0,4.36365 -6.32135,5.0648 -14.63878,5.0648c-8.31743,0 -12.11122,-1.10633 -12.11122,-5.46998c0,-4.36365 3.37253,-7.4959 11.68996,-7.4959z" data-paper-data="{&quot;index&quot;:null}" fill="#653a1b" stroke="#000000" stroke-width="1" stroke-linecap="butt"/><path d="M360.86991,238.79127l6.49588,-8.35652l8.68366,1.62776l3.22884,10.71044z" fill="#ffffff" stroke="none" stroke-width="0" stroke-linecap="butt"/><path d="M368.92822,233.16625c0,1.84095 -1.52969,3.33334 -3.41667,3.33334c-0.76605,0 -2.09401,-1.24179 -1.12919,-2.26126c0.56995,-0.60223 1.94671,-2.53922 2.64057,-3.33609c1.24682,-1.43192 1.90529,1.79769 1.90529,2.26401z" fill="#000000" stroke="none" stroke-width="0" stroke-linecap="butt"/><path d="M366.09083,232.2147l0.75393,-0.96988l1.00785,0.18892l0.37475,1.24308z" fill="#ffffff" stroke="none" stroke-width="0" stroke-linecap="butt"/><path d="M364.88123,234.89102c0,-0.69036 0.55964,-1.25 1.25,-1.25c0.69036,0 1.25,0.55964 1.25,1.25c0,0.69036 -0.55964,1.25 -1.25,1.25c-0.69036,0 -1.25,-0.55964 -1.25,-1.25z" fill="#151f2e" stroke="none" stroke-width="0.5" stroke-linecap="butt"/><path d="M364.72587,228.89853l4.34974,-3.24461l8.60236,1.63433l5.39959,5.32264z" fill="#000000" stroke="none" stroke-width="0" stroke-linecap="butt"/><path d="M342.83162,344.81213c0,16.56854 -21.56547,19 -42,19c-20.43453,0 -43,-4.43146 -43,-21c0,-16.56854 22.56547,-39 43,-39c20.43453,0 42,24.43146 42,41z" fill="#414141" stroke="none" stroke-width="NaN" stroke-linecap="butt"/><path d="M300.44777,338.23121l-0.33333,-33.66666" fill="none" stroke="#000000" stroke-width="0.5" stroke-linecap="round"/><path d="M481.29236,172.77196c0,10.95605 -2.77436,20.09591 -8.86359,25.97731c-6.75162,6.52119 -17.34914,9.18936 -27.80308,9.18936c-9.46749,0 -20.84849,-2.06021 -27.627,-9.35049c-7.0968,-7.6326 -9.373,-20.51738 -9.373,-20.81618c0,-23.10391 17.11775,-53.5 37,-53.5c19.88225,0 36.66667,25.39609 36.66667,48.5z" fill="#553a33" stroke="#000000" stroke-width="0.5" stroke-linecap="butt"/><path d="M428.75164,175.87204l6,-11.8483l20.33333,-0.34848l8.33333,12.54527z" fill="#000000" stroke="none" stroke-width="0" stroke-linecap="butt"/><path d="M462.75164,189.55384l-7,11.66667h-21.66666l-6,-11.33333c0,0 4.98197,0.83047 8.63364,0.01868c3.38299,-0.75206 5.34073,-3.14984 8.03472,-3.17575c2.12211,-0.02041 4.36133,1.6682 7.2191,2.13307c5.13392,0.83514 10.7792,0.69066 10.7792,0.69066z" data-paper-data="{&quot;index&quot;:null}" fill="#000000" stroke="none" stroke-width="0" stroke-linecap="butt"/><path d="M434.75164,201.22051l-11.33334,-6.46154l-0.33333,-21.89743l12,-8.97436z" data-paper-data="{&quot;index&quot;:null}" fill="#000000" stroke="none" stroke-width="0" stroke-linecap="butt"/><path d="M454.08497,163.88718l12,8.97436l-0.33333,21.89743l-11.33334,6.46154z" data-paper-data="{&quot;index&quot;:null}" fill="#000000" stroke="none" stroke-width="0" stroke-linecap="butt"/><path d="M455.2955,164.86861c0,2.45931 -4.84177,4.45298 -10.81438,4.45298c-5.97262,0 -10.81437,-1.99367 -10.81437,-4.45298c0,-2.45931 4.84176,-4.45298 10.81437,-4.45298c5.97262,0 10.81438,1.99367 10.81438,4.45298z" fill="#553a33" stroke="#000000" stroke-width="0.5" stroke-linecap="butt"/><path d="M449.42539,157.37903l6.22718,-8.55863l8.73098,1.35113l3.56739,10.60248z" fill="#ffffff" stroke="none" stroke-width="0" stroke-linecap="butt"/><path d="M460.81781,156.09684c0,1.7752 -1.567,3.21429 -3.5,3.21429c-1.933,0 -3.5,-1.43908 -3.5,-3.21429c0,-1.7752 1.567,-3.21429 3.5,-3.21429c1.933,0 3.5,1.43908 3.5,3.21429z" fill="#000000" stroke="none" stroke-width="0" stroke-linecap="butt"/><path d="M456.58654,154.33693l0.75393,-0.96988l1.00785,0.18892l0.37475,1.24308z" fill="#ffffff" stroke="none" stroke-width="0" stroke-linecap="butt"/><path d="M455.37694,157.01323c0,-0.69036 0.55964,-1.25 1.25,-1.25c0.69036,0 1.25,0.55964 1.25,1.25c0,0.69036 -0.55964,1.25 -1.25,1.25c-0.69036,0 -1.25,-0.55964 -1.25,-1.25z" fill="#151f2e" stroke="none" stroke-width="0.5" stroke-linecap="butt"/><path d="M452.35576,151.94234l3.03953,-4.49544l8.66099,-1.28795l6.85056,3.24898z" fill="#000000" stroke="none" stroke-width="0" stroke-linecap="butt"/><path d="M422.47134,160.19177l3.56739,-10.60248l8.73098,-1.35113l6.22718,8.55863z" data-paper-data="{&quot;index&quot;:null}" fill="#ffffff" stroke="none" stroke-width="0" stroke-linecap="butt"/><path d="M429.26557,152.56507c1.933,0 3.5,1.43909 3.5,3.21429c0,1.7752 -1.567,3.21428 -3.5,3.21428c-1.933,0 -3.5,-1.43908 -3.5,-3.21428c0,-1.7752 1.567,-3.21429 3.5,-3.21429z" data-paper-data="{&quot;index&quot;:null}" fill="#000000" stroke="none" stroke-width="0" stroke-linecap="butt"/><path d="M427.8603,154.48156l0.37475,-1.24308l1.00785,-0.18892l0.75393,0.96988z" data-paper-data="{&quot;index&quot;:null}" fill="#ffffff" stroke="none" stroke-width="0" stroke-linecap="butt"/><path d="M429.95643,157.94574c-0.69036,0 -1.25,-0.55964 -1.25,-1.25c0,-0.69036 0.55964,-1.25 1.25,-1.25c0.69036,0 1.25,0.55964 1.25,1.25c0,0.69036 -0.55964,1.25 -1.25,1.25z" data-paper-data="{&quot;index&quot;:null}" fill="#151f2e" stroke="none" stroke-width="0.5" stroke-linecap="butt"/><path d="M419.51545,148.82567l6.85057,-3.24898l8.66099,1.28795l3.03953,4.49544z" data-paper-data="{&quot;index&quot;:null}" fill="#000000" stroke="none" stroke-width="0" stroke-linecap="butt"/></g></g></svg>