<svg version="1.1" xmlns="http://www.w3.org/2000/svg" xmlns:xlink="http://www.w3.org/1999/xlink" width="178.19513" height="114.14311" viewBox="0,0,178.19513,114.14311"><defs><linearGradient x1="239.99999" y1="157.12127" x2="239.99999" y2="235.36051" gradientUnits="userSpaceOnUse" id="color-1"><stop offset="0" stop-color="#c4cc75"/><stop offset="1" stop-color="#8bcc74"/></linearGradient><linearGradient x1="239.99999" y1="124.17845" x2="239.99999" y2="156.77812" gradientUnits="userSpaceOnUse" id="color-2"><stop offset="0" stop-color="#ffffff"/><stop offset="1" stop-color="#e3e3e3"/></linearGradient><linearGradient x1="239.99999" y1="226.8967" x2="239.99999" y2="235.82154" gradientUnits="userSpaceOnUse" id="color-3"><stop offset="0" stop-color="#ffffff"/><stop offset="1" stop-color="#e3e3e3"/></linearGradient><linearGradient x1="179.27544" y1="164.61659" x2="179.27544" y2="201.2744" gradientUnits="userSpaceOnUse" id="color-4"><stop offset="0" stop-color="#bbd9ed"/><stop offset="1" stop-color="#6c7c99"/></linearGradient><linearGradient x1="219.36993" y1="164.61659" x2="219.36993" y2="201.2744" gradientUnits="userSpaceOnUse" id="color-5"><stop offset="0" stop-color="#bbd9ed"/><stop offset="1" stop-color="#6c7c99"/></linearGradient><linearGradient x1="259.08257" y1="164.61659" x2="259.08257" y2="201.2744" gradientUnits="userSpaceOnUse" id="color-6"><stop offset="0" stop-color="#bbd9ed"/><stop offset="1" stop-color="#6c7c99"/></linearGradient><linearGradient x1="299.17705" y1="164.61659" x2="299.17705" y2="201.2744" gradientUnits="userSpaceOnUse" id="color-7"><stop offset="0" stop-color="#bbd9ed"/><stop offset="1" stop-color="#6c7c99"/></linearGradient></defs><g transform="translate(-150.90244,-122.92845)"><g data-paper-data="{&quot;isPaintingLayer&quot;:true}" fill-rule="nonzero" stroke="#000000" stroke-width="2.5" stroke-linecap="butt" stroke-linejoin="miter" stroke-miterlimit="10" stroke-dasharray="" stroke-dashoffset="0" style="mix-blend-mode: normal"><path d="M152.15244,235.36051v-78.23924h175.69513v78.23924z" fill="url(#color-1)"/><path d="M152.15244,156.77812c0,0 0,-16.24894 0,-22.26376c0,-4.09824 3.73454,-10.33591 8.22132,-10.33591c15.46976,0 133.50874,0 161.5235,0c3.8059,0 5.95031,5.15763 5.95031,8.8085c0,6.00003 0,23.79119 0,23.79119z" fill="url(#color-2)"/><path d="M152.15244,235.82154v-8.92484h175.69513v8.92485z" fill="url(#color-3)"/><path d="M167.62895,201.2744v-36.65781h23.29299v36.65781z" fill="url(#color-4)"/><path d="M207.72343,201.2744v-36.65781h23.29299v36.65781z" fill="url(#color-5)"/><path d="M247.43607,201.2744v-36.65781h23.29299v36.65781z" fill="url(#color-6)"/><path d="M287.53056,201.2744v-36.65781h23.29299v36.65781z" fill="url(#color-7)"/></g></g></svg>