<svg version="1.1" xmlns="http://www.w3.org/2000/svg" xmlns:xlink="http://www.w3.org/1999/xlink" width="1240" height="798" viewBox="0,0,1240,798"><g transform="translate(373.66666,194.33333)"><g data-paper-data="{&quot;isPaintingLayer&quot;:true}" fill-rule="nonzero" stroke="none" stroke-width="0" stroke-linecap="butt" stroke-linejoin="miter" stroke-miterlimit="10" stroke-dasharray="" stroke-dashoffset="0" style="mix-blend-mode: normal"><path d="M-373.66666,603.66667v-798h1067v798z" fill="#ffffff"/><path d="M-2.66666,315.66667c-2.20914,0 -4,-1.79086 -4,-4v-461c0,-2.20914 1.79086,-4 4,-4h17c2.20914,0 4,1.79086 4,4v461c0,2.20914 -1.79086,4 -4,4z" fill="#d1d1d1"/><path d="M62.33335,320.66667c-2.20914,0 -4,-1.79086 -4,-4v-461c0,-2.20914 1.79086,-4 4,-4h17c2.20914,0 4,1.79086 4,4v461c0,2.20914 -1.79086,4 -4,4z" fill="#d1d1d1"/><path d="M127.33335,325.66667c-2.20914,0 -4,-1.79086 -4,-4v-461c0,-2.20914 1.79086,-4 4,-4h17c2.20914,0 4,1.79086 4,4v461c0,2.20914 -1.79086,4 -4,4z" fill="#d1d1d1"/><path d="M192.33335,330.66667c-2.20914,0 -4,-1.79086 -4,-4v-461c0,-2.20914 1.79086,-4 4,-4h17c2.20914,0 4,1.79086 4,4v461c0,2.20914 -1.79086,4 -4,4z" fill="#d1d1d1"/><path d="M257.33335,335.66667c-2.20914,0 -4,-1.79086 -4,-4v-461c0,-2.20914 1.79086,-4 4,-4h17c2.20914,0 4,1.79086 4,4v461c0,2.20914 -1.79086,4 -4,4z" fill="#d1d1d1"/><path d="M322.33335,340.66667c-2.20914,0 -4,-1.79086 -4,-4v-461c0,-2.20914 1.79086,-4 4,-4h17c2.20914,0 4,1.79086 4,4v461c0,2.20914 -1.79086,4 -4,4z" fill="#d1d1d1"/><path d="M387.33335,345.66667c-2.20914,0 -4,-1.79086 -4,-4v-461c0,-2.20914 1.79086,-4 4,-4h17c2.20914,0 4,1.79086 4,4v461c0,2.20914 -1.79086,4 -4,4z" fill="#d1d1d1"/><path d="M452.33335,350.66667c-2.20914,0 -4,-1.79086 -4,-4v-461c0,-2.20914 1.79086,-4 4,-4h17c2.20914,0 4,1.79086 4,4v461c0,2.20914 -1.79086,4 -4,4z" fill="#d1d1d1"/><path d="M-367.66666,445.66667v-156h1234v156z" fill="#9a9a9a"/></g></g></svg>