<svg version="1.1" xmlns="http://www.w3.org/2000/svg" xmlns:xlink="http://www.w3.org/1999/xlink" width="1664" height="862" viewBox="0,0,1664,862"><defs><radialGradient cx="-345.34999" cy="32.39999" r="1.5" gradientUnits="userSpaceOnUse" id="color-1"><stop offset="0" stop-color="#9966ff"/><stop offset="1" stop-color="#000000"/></radialGradient></defs><g transform="translate(526.1,152.1)"><g data-paper-data="{&quot;isPaintingLayer&quot;:true}" fill-rule="nonzero" stroke="none" stroke-width="0" stroke-linecap="butt" stroke-linejoin="miter" stroke-miterlimit="10" stroke-dasharray="" stroke-dashoffset="0" style="mix-blend-mode: normal"><path d="M-346.84999,33.89999v-3h3v3z" fill="url(#color-1)"/><path d="M-526.09999,8.90001v-1h12v1z" fill="#000000"/><path d="M-233.09999,619.90001v-772h1041v772z" fill="#008ce9"/><path d="M-263.09999,568.90001v-530h1058v530z" fill="#00b2ff"/><path d="M-377.09999,709.90001v-609h1515v609z" fill="#35caff"/><path d="M-26.94174,405.00001c0,-129.23463 119.51389,-234 266.94175,-234c147.42786,0 266.94175,104.76537 266.94175,234c0,129.23463 -119.51389,234 -266.94175,234c-147.42786,0 -266.94175,-104.76537 -266.94175,-234z" fill="#ffbd00"/><path d="M5.00001,405.00001c0,-113.77066 105.21308,-206 235,-206c129.78692,0 235,92.22934 235,206c0,113.77066 -105.21308,206 -235,206c-129.78692,0 -235,-92.22934 -235,-206z" fill="#fffb00"/><path d="M622.10002,443.90001c0,101.6204 -112.37653,184 -251,184c-138.62347,0 -251,-82.3796 -251,-184c0,-101.6204 112.37653,-184 251,-184c138.62347,0 251,82.3796 251,184z" fill="#8aba53"/><path d="M349.90001,457.90001c0,101.6204 -112.37653,184 -251,184c-138.62347,0 -251,-82.3796 -251,-184c0,-101.6204 112.37653,-184 251,-184c138.62347,0 251,82.3796 251,184z" fill="#7aa14e"/><path d="M539.90001,496.90001c0,101.6204 -112.37653,184 -251,184c-138.62347,0 -251,-82.3796 -251,-184c0,-101.6204 112.37653,-184 251,-184c138.62347,0 251,82.3796 251,184z" fill="#91c05c"/></g></g></svg>