<svg version="1.1" xmlns="http://www.w3.org/2000/svg" xmlns:xlink="http://www.w3.org/1999/xlink" width="18.39596" height="27.38863" viewBox="0,0,18.39596,27.38863"><g transform="translate(-236.41594,-179.89908)"><g data-paper-data="{&quot;isPaintingLayer&quot;:true}" fill-rule="nonzero" stroke="#000000" stroke-width="1.5" stroke-linecap="round" stroke-linejoin="miter" stroke-miterlimit="10" stroke-dasharray="" stroke-dashoffset="0" style="mix-blend-mode: normal"><path d="M253.4692,204.59208c0,0 -1.35039,-1.73834 -1.46945,-3.17574c-0.15946,-1.92514 -0.06258,-6.76237 0.06756,-9.3542c0.04653,-0.92672 -2.54485,-2.57986 -3.90356,-2.57193c-1.05431,0.00615 -3.35963,0.75557 -3.35963,0.75557c0,0 -1.05647,-5.79065 -1.46776,-7.76283c-0.15783,-0.75679 -1.93783,-1.99283 -2.64174,-1.81694c-0.68662,0.17156 -1.54183,2.24036 -1.36555,3.02281c0.43176,1.91637 1.75473,6.42346 2.44662,9.49442c0.16438,0.72958 -0.09215,1.86588 -0.09215,1.86588c0,0 -0.65864,0.19546 -1.13429,-0.2571c-0.67485,-0.64208 -1.26532,-2.00545 -1.52959,-2.05937c-0.7858,-0.16032 -1.85372,0.4641 -1.85372,0.4641c0,0 -0.12693,3.90061 0.57381,4.8688c0.63163,0.87272 3.64267,1.5617 3.64267,1.5617c0,0 2.00549,0.73236 2.45924,1.51244c0.71021,1.22101 0.39147,5.22577 0.39147,5.22577z" fill="#ffd9ad"/><path d="M244.17835,202.48254l7.33858,-1.55088l1.90831,3.46531l-9.31165,1.8929z" fill="#5845ff"/></g></g></svg>