<svg version="1.1" xmlns="http://www.w3.org/2000/svg" xmlns:xlink="http://www.w3.org/1999/xlink" width="742" height="577" viewBox="0,0,742,577"><defs><radialGradient cx="110.09858" cy="307.62923" r="66.40826" gradientUnits="userSpaceOnUse" id="color-1"><stop offset="0" stop-color="#ffffff"/><stop offset="1" stop-color="#6b6b6b"/></radialGradient><radialGradient cx="104.97834" cy="310.47381" r="53.92973" gradientUnits="userSpaceOnUse" id="color-2"><stop offset="0" stop-color="#bcbcbc"/><stop offset="1" stop-color="#3c3c3c"/></radialGradient><linearGradient x1="23.44324" y1="315.79021" x2="23.44324" y2="341.50764" gradientUnits="userSpaceOnUse" id="color-3"><stop offset="0" stop-color="#fff800"/><stop offset="1" stop-color="#ff7300"/></linearGradient><linearGradient x1="35.7909" y1="320.07959" x2="35.7909" y2="340.91058" gradientUnits="userSpaceOnUse" id="color-4"><stop offset="0" stop-color="#fff800"/><stop offset="1" stop-color="#ff7300"/></linearGradient><linearGradient x1="48.82362" y1="317.85628" x2="48.82362" y2="341.60982" gradientUnits="userSpaceOnUse" id="color-5"><stop offset="0" stop-color="#fff800"/><stop offset="1" stop-color="#ff7300"/></linearGradient><linearGradient x1="93.15462" y1="317.85628" x2="93.15462" y2="341.60982" gradientUnits="userSpaceOnUse" id="color-6"><stop offset="0" stop-color="#fff800"/><stop offset="1" stop-color="#ff7300"/></linearGradient><linearGradient x1="109.009" y1="316.83218" x2="109.009" y2="342.54877" gradientUnits="userSpaceOnUse" id="color-7"><stop offset="0" stop-color="#fff800"/><stop offset="1" stop-color="#ff7300"/></linearGradient><linearGradient x1="63.93922" y1="319.6539" x2="63.93922" y2="341.17197" gradientUnits="userSpaceOnUse" id="color-8"><stop offset="0" stop-color="#fff800"/><stop offset="1" stop-color="#ff7300"/></linearGradient><linearGradient x1="79.59921" y1="317.40052" x2="79.59921" y2="342.32353" gradientUnits="userSpaceOnUse" id="color-9"><stop offset="0" stop-color="#fff800"/><stop offset="1" stop-color="#ff7300"/></linearGradient></defs><g transform="translate(136,96.16667)"><g data-paper-data="{&quot;isPaintingLayer&quot;:true}" fill-rule="nonzero" stroke-linejoin="miter" stroke-miterlimit="10" stroke-dasharray="" stroke-dashoffset="0" style="mix-blend-mode: normal"><path d="M-136,480.83333v-577h742v577z" fill="#ffffff" stroke="none" stroke-width="0" stroke-linecap="butt"/><path d="M132.98484,326.40343c0,18.46697 -29.73199,33.43741 -66.40826,33.43741c-36.67627,0 -66.40826,-14.97044 -66.40826,-33.43741c0,-18.46697 29.73199,-33.43741 66.40826,-33.43741c36.67627,0 66.40826,14.97044 66.40826,33.43741z" fill="url(#color-1)" stroke="#000000" stroke-width="0" stroke-linecap="butt"/><path d="M118.99129,324.81161c0,14.99692 -24.14516,27.15431 -53.92973,27.15431c-29.78457,0 -53.92973,-12.1574 -53.92973,-27.15431c0,-14.99692 24.14517,-27.15432 53.92974,-27.15432c29.78457,0 53.92973,12.1574 53.92973,27.15432z" fill="url(#color-2)" stroke="#000000" stroke-width="0" stroke-linecap="butt"/><path d="M77.96529,303.64078c0.46565,1.01876 1.84831,3.69641 2.60249,5.11555c1.00786,1.8965 1.22588,6.20299 1.22588,6.20299c0,0 -1.3649,2.78922 -1.97123,3.77246c-0.38921,0.63115 -1.31369,1.55443 -1.31369,1.55443c0,0 -0.44278,0.38068 -1.10039,0.55638c-1.63739,0.43749 -3.27493,1.69932 -4.76759,1.90239c-0.50238,0.06835 -2.65506,0.47102 -2.65506,0.47102c0,0 -2.73268,-0.12848 -3.90901,-0.15649c-0.4317,-0.01028 -2.48327,-0.55377 -2.48327,-0.55377l-8.25669,-2.3971c0,0 -1.84794,-1.67495 -2.72837,-2.43825c-1.3178,-1.14249 -1.24825,-3.10071 -1.24825,-3.10071c0,0 0.81608,-4.4166 1.88121,-6.3279c1.22189,-2.1926 4.44005,-5.6221 4.44005,-5.6221l1.91688,-6.21572c0,0 0.25231,-1.34309 0.60454,-0.91591c0.7334,0.88944 3.5682,5.97646 3.5682,5.97646h8.25669c0,0 2.01138,-4.92604 2.63258,-6.23382c0.38,-0.8 0.74113,1.26205 0.74113,1.26205c0,0 1.7808,5.43475 2.5639,7.14803z" fill="#e8cea9" stroke="#000000" stroke-width="1" stroke-linecap="round"/><path d="M56.84934,317.23803c0.31279,1.39922 11.36562,4.52483 11.58031,5.56174c0.2372,1.14561 -8.86493,-1.44744 -9.92598,-1.53005c-0.86894,-0.06766 -2.34148,-0.26055 -2.93068,-0.7888c-0.90219,-0.80886 -2.19867,-1.28297 -2.74225,-2.32823c-1.17234,-2.25429 -0.96969,-5.98485 -0.31237,-8.35312c0.26,-0.93676 3.91577,-5.01966 3.92285,-5.02057c0.56783,-0.07282 -1.14487,4.42378 -1.156,7.3748c-0.00704,1.86556 1.27484,3.7901 1.56414,5.08423z" fill="#c7b191" stroke="none" stroke-width="0.5" stroke-linecap="butt"/><path d="M65.16359,316.26196c0.63167,-0.09549 2.83478,-4.37044 3.30235,-4.4336c0.51659,-0.06979 -0.88681,3.43216 -0.95655,3.90122c-0.05711,0.38413 -0.5255,1.00907 -0.77864,1.25453c-0.3876,0.37584 -0.80414,0.88346 -1.28567,1.09255c-1.03848,0.45094 -2.77456,0.23888 -3.80678,-0.12699c-0.40829,-0.14472 -1.33054,-0.51609 -1.34593,-1.06633c-0.00006,-0.00203 -0.00013,-0.00408 -0.00023,-0.00613c-0.02304,-0.06739 -0.03794,-0.14039 -0.0432,-0.21752c-0.00022,-0.00316 -0.00041,-0.00632 -0.0006,-0.0095c-0.0147,-0.25466 1.29534,0.05203 2.60669,0.14881c0.829,0.06118 1.72432,-0.44871 2.30854,-0.53703z" fill="#c7b191" stroke="none" stroke-width="0.5" stroke-linecap="butt"/><path d="M72.36536,317.15411c1.31135,-0.09678 2.62138,-0.40347 2.60669,-0.14881c-0.00019,0.00318 -0.00038,0.00634 -0.0006,0.0095c-0.00526,0.07712 -0.02016,0.15012 -0.0432,0.21752c-0.00009,0.00206 -0.00017,0.0041 -0.00023,0.00613c-0.01538,0.55024 -0.93764,0.92162 -1.34592,1.06633c-1.03221,0.36587 -2.76829,0.57792 -3.80677,0.12699c-0.48152,-0.20909 -0.89806,-0.7167 -1.28567,-1.09255c-0.25313,-0.24545 -0.72153,-0.8704 -0.77864,-1.25452c-0.06974,-0.46906 -1.47313,-3.971 -0.95654,-3.90122c0.46757,0.06316 2.67068,4.33812 3.30235,4.43361c0.58423,0.08832 1.47955,0.59821 2.30855,0.53703z" data-paper-data="{&quot;index&quot;:null}" fill="#c7b191" stroke="none" stroke-width="0.5" stroke-linecap="butt"/><g stroke="none" stroke-width="0.5" stroke-linecap="butt"><path d="M64.73427,312.2071c0.45323,-0.56039 0.73148,-1.09486 1.17831,-1.41112c0.23128,-0.1637 0.50773,-0.26894 0.87699,-0.28905c0.85695,-0.04666 1.71662,-0.01714 2.57467,0c1.37362,0.02744 2.09746,1.45905 1.28021,2.53647c-0.93714,1.23546 -2.89393,1.41675 -4.20352,0.77625c-0.34767,-0.17004 -1.27898,-0.29546 -1.35404,-0.6708z" fill="#000000"/><path d="M65.78489,312.24892c0.30096,-0.37211 0.48572,-0.72701 0.78242,-0.93702c0.15358,-0.1087 0.33714,-0.17859 0.58234,-0.19193c0.56904,-0.03098 1.13987,-0.01138 1.70964,0c0.91212,0.01822 1.39277,0.96884 0.85009,1.68427c-0.62228,0.82038 -1.92164,0.94076 -2.79124,0.51545c-0.23087,-0.11291 -0.84927,-0.19619 -0.89912,-0.44543z" fill="#a72a49"/><path d="M69.97171,312.33327c-0.30374,0.60747 -0.91121,0.30374 -0.91121,0.30374l-0.13563,-0.1111c-0.23675,-0.02959 -0.4735,-0.05919 -0.71025,-0.08878c0,0 -0.67394,-0.08424 -0.58969,-0.75817c0.08424,-0.67393 0.75818,-0.5897 0.75818,-0.5897c0.23675,0.02959 0.4735,0.05919 0.71025,0.08878l0.57462,0.24402c0,0 0.60747,0.30374 0.30374,0.91121z" fill="#d1748b"/></g><path d="M57.73385,309.85438c0,-2.13292 1.72908,-3.862 3.862,-3.862c2.13292,0 3.862,1.72908 3.862,3.862c0,2.13292 -1.72908,3.862 -3.862,3.862c-2.13292,0 -3.862,-1.72908 -3.862,-3.862z" fill="#000000" stroke="none" stroke-width="0" stroke-linecap="butt"/><path d="M69.63058,309.85438c0,-2.13292 1.72908,-3.862 3.862,-3.862c2.13292,0 3.862,1.72908 3.862,3.862c0,2.13292 -1.72908,3.862 -3.862,3.862c-2.13292,0 -3.862,-1.72908 -3.862,-3.862z" fill="#000000" stroke="none" stroke-width="0" stroke-linecap="butt"/><path d="M62.77522,308.1419c0,-0.3751 0.30408,-0.67918 0.67918,-0.67918c0.3751,0 0.67918,0.30408 0.67918,0.67918c0,0.3751 -0.30408,0.67918 -0.67918,0.67918c-0.3751,0 -0.67918,-0.30408 -0.67918,-0.67918z" fill="#ffffff" stroke="none" stroke-width="0.5" stroke-linecap="butt"/><path d="M74.77406,307.91551c0,-0.3751 0.30408,-0.67918 0.67918,-0.67918c0.3751,0 0.67918,0.30408 0.67918,0.67918c0,0.3751 -0.30408,0.67918 -0.67918,0.67918c-0.3751,0 -0.67918,-0.30408 -0.67918,-0.67918z" fill="#ffffff" stroke="none" stroke-width="0.5" stroke-linecap="butt"/><path d="M17.12284,319.047c-0.13404,-0.60142 -0.21003,-1.24508 0.00743,-1.74734c0.7411,-1.71166 2.14448,-1.50364 3.64089,-1.49948c2.63917,0.00734 4.71911,0.78289 6.2225,3.01841c0.67393,1.12321 1.36619,2.24604 2.10129,3.33036c0.25587,0.37743 0.69993,0.67815 0.77372,1.12813c0.08424,0.51372 -0.05566,1.07942 -0.34141,1.57532c0.06526,0.12858 0.10204,0.27405 0.10204,0.42811c0,0.18383 -0.05237,0.35544 -0.143,0.50071l-0.51152,0.85253c-0.78639,1.55716 -1.15346,1.98252 -2.90127,2.34898c-0.07123,-0.0169 -0.15165,-0.03722 -0.23927,-0.05955c-0.21564,0.01059 -0.47061,-0.00461 -0.73722,-0.03465l-0.85577,0.23339c-0.08562,0.02543 -0.1763,0.03908 -0.27017,0.03908c-0.26969,0 -0.3365,0.289 -0.25272,0.54377c0.31633,0.96182 0.39015,1.31066 0.30727,2.32729c-0.14497,1.77829 -0.35095,3.44604 -0.35172,5.24812c-0.00031,0.73585 0.28326,1.50052 0.07495,2.20627c-0.17954,0.60829 -0.42012,1.28973 -0.93851,1.65512c-0.35492,0.25017 -0.86903,-0.1267 -1.3004,-0.07698c-0.48996,0.05647 -0.98607,0.61244 -1.42693,0.39132c-1.41728,-0.71085 -1.19114,-3.47153 -1.40688,-4.766c-0.12791,-1.41162 -0.25287,-2.80248 -0.35946,-4.21342c-0.07808,-1.03354 -0.53035,-1.98879 -0.62281,-3.02908c-0.18589,-2.09149 -0.00518,-4.2716 -0.2615,-6.35222c-0.17165,-1.39329 -0.34309,-2.69147 -0.30952,-4.04821zM26.08475,325.38826c-0.1425,-0.35118 -0.19263,-0.78114 -0.34026,-1.12558c-0.63937,-1.49177 -1.28954,-2.8474 -2.44322,-4.00108c-0.3117,-0.3117 -0.26691,-0.77095 -0.69543,-0.87432c-0.30668,-0.07398 -0.59764,0.40303 -0.74874,0.67997c-0.1735,0.31798 -0.2604,1.33232 -0.2604,1.33232c-0.07115,1.03579 -0.49703,1.94231 -0.4155,2.99522c0.01823,0.23544 -0.04207,0.96346 0.25084,1.19732c0.31776,0.25371 1.40754,-0.18023 1.4541,-0.18611c0.52261,-0.06595 2.34387,-0.17003 3.19861,-0.01774z" fill="url(#color-3)" stroke="none" stroke-width="0.5" stroke-linecap="butt"/><path d="M18.7851,340.31344c0,0 -0.2425,-5.76393 -0.93751,-11.37847c-0.30677,-2.47817 -0.94457,-11.89489 -0.94457,-11.89489c0,0 0.81218,-1.04333 1.39789,-1.12316c1.78543,-0.24333 5.32952,-0.44124 6.92265,0.50501c2.22036,1.3188 4.8807,7.55355 4.8807,7.55355c0,0 -0.83219,3.29884 -1.71612,4.36832c-0.88028,1.06507 -3.0785,0.77605 -3.94882,0.65665c-0.21588,-0.02962 -0.48814,0.30414 -0.49044,0.47002c-0.02108,1.52255 -0.07062,9.1747 -0.1775,10.73431c-0.03515,0.51291 -0.86834,1.08642 -0.86834,1.08642c0,0 -2.9809,0.3755 -3.7162,0.20091c-0.37394,-0.08879 -0.40172,-1.17866 -0.40172,-1.17866z" fill="none" stroke="#000000" stroke-width="1" stroke-linecap="round"/><path d="M22.46001,320.214c0,0 0.26065,-0.51459 0.49501,-0.17808c0.40813,0.58603 2.27064,3.12144 3.00537,4.43619c0.29897,0.53499 -0.03381,0.71953 -0.03381,0.71953c0,0 -3.79062,0.80599 -4.5192,0.90407c-0.26702,0.03595 -0.1029,-0.28187 -0.1029,-0.28187z" fill="none" stroke="#000000" stroke-width="1" stroke-linecap="round"/><path d="M39.5325,324.23909c0,0 -0.46715,0.74598 -0.87546,0.7286c-0.94613,-0.04026 -2.59353,-0.11037 -3.11221,-0.13244c-0.30807,-0.01311 -0.65383,0.63525 -0.65383,0.63525l0.18945,3.97842c0,0 0.42047,0.59299 1.01381,0.4941c1.14033,-0.19005 2.91919,-0.48653 3.57905,-0.59651c0.48886,-0.08147 1.09061,0.29185 1.09061,0.29185c0,0 0,1.35668 0,1.89449c0,0.39885 -0.56835,1.23142 -0.56835,1.23142c0,0 -3.54859,0 -4.45204,0c-0.39535,0 -0.94724,0.47362 -0.94724,0.47362c0,0 -0.05526,2.81803 -0.07248,3.69654c-0.00954,0.48667 0.83028,1.03968 0.83028,1.03968c0,0 3.14945,-0.34358 4.08651,-0.4458c0.4913,-0.0536 1.12332,0.54053 1.12332,0.54053c0,0 -0.22018,1.59628 -0.28915,2.09631c-0.03842,0.27858 -1.03699,0.74542 -1.03699,0.74542c0,0 -6.08983,0 -7.3885,0c-0.465,0 -1.23142,-0.75779 -1.23142,-0.75779l0.47362,-18.6607c0,0 0.42003,-0.60531 0.93638,-0.66399c1.72085,-0.19555 5.56368,-0.63224 6.55893,-0.74533c0.45995,-0.05227 0.84044,0.5568 0.84044,0.5568z" fill="url(#color-4)" stroke="#000000" stroke-width="1" stroke-linecap="round"/><path d="M44.22352,336.45982c-0.63626,-0.25016 -1.5211,-0.18736 -1.90878,-0.75049c-0.33298,-0.48369 0.08978,-1.17254 0.18612,-1.75181c0.19479,-1.17115 0.63946,-2.15446 1.18987,-3.1854c0.67302,-1.2606 1.16911,-2.6114 2.00808,-3.78199c0.21921,-0.30586 0.97289,-1.06766 1.12681,-1.50311c0.23243,-0.65757 0.15379,-1.41415 0.45862,-2.04145c0.73628,-1.51518 1.8426,-2.89637 2.65008,-4.39752c0,0 0.07976,-0.14812 0.23447,-0.2859c0.02167,-0.50394 0.43707,-0.90586 0.94636,-0.90586c0.30938,0 0.58413,0.14833 0.757,0.37775l0.68742,0.89364l-0.11448,0.08806c0.06043,-0.00113 0.11744,0.01542 0.16945,0.05763c0.31484,0.25548 0.13914,0.79892 0.2013,1.19958c0.07304,0.47075 0.11038,0.93307 0.12936,1.39536c0.52588,0.71494 0.51178,2.69762 0.68776,3.44818c0.42385,1.80778 0.49608,3.4895 0.71202,5.30787c0.12319,1.03733 0.23168,2.03558 0.40853,3.06848c0.18093,1.05672 0.49947,2.07843 0.49947,3.14447c0,0.75498 -0.03536,1.51057 -0.00461,2.26492c0.02128,0.5219 0.37941,1.1158 0.10977,1.56316c-0.57377,0.95193 -1.2164,1.05746 -1.87126,0.86352l-0.00871,0.06096l-0.95726,-0.13675c-0.46239,-0.05854 -0.82085,-0.45041 -0.82699,-0.92724c-0.2273,-0.37737 -0.22006,-0.99401 -0.34151,-1.4376c-0.23285,-0.85051 -0.02414,-1.8672 -0.30471,-2.71784c-0.12699,-0.385 -0.58919,-0.69517 -0.52749,-1.09585c0.02558,-0.16612 -1.30421,-0.62811 -2.578,-0.41183c-1.48186,0.2516 -2.98595,1.22507 -3.71869,1.59708zM50.85585,331.83786l-0.01178,-0.17671l1.0312,-0.06875c0.02384,-0.0018 0.04792,-0.00271 0.07222,-0.00271c0.00445,0 0.00889,0.00003 0.01333,0.00009c-0.2468,-1.54599 -0.98741,-4.55615 -1.1231,-4.55615c-0.35549,0 -0.66523,-0.19582 -0.82726,-0.48548l-0.15459,-0.26501c-0.13826,0.1127 -0.29911,0.22606 -0.47987,0.34221c-0.11162,0.07172 -0.23998,0.10535 -0.37272,0.12949c-0.04804,0.12862 -0.10179,0.25576 -0.16289,0.381c-0.41532,0.85123 -1.05048,1.65033 -1.61693,2.4682c-0.01004,0.06381 -0.02028,0.12595 -0.03101,0.18607c-0.05815,0.32589 -0.11228,0.65419 -0.20808,0.97105c-0.04451,0.1472 -0.26334,0.26676 -0.20976,0.4109c0.04919,0.13233 0.26639,0.10198 0.40659,0.11861c0.7162,0.0849 1.44504,0.17725 2.12042,0.43022c0.06873,0.02574 0.13763,0.05145 0.20673,0.07689h0.04367c0.4329,-0.04468 0.86956,-0.02373 1.30384,0.04009z" fill="url(#color-5)" stroke="none" stroke-width="2.5" stroke-linecap="butt"/><path d="M42.0331,336.08178c0,0 -0.35919,-0.54479 -0.067,-1.14998c1.09517,-2.26839 7.26681,-15.69106 7.26681,-15.69106c0,0 1.23486,-1.06462 1.69219,-1.04433c1.35255,0.05999 1.5911,0.49428 1.77138,1.25431c1.28421,5.41417 2.16638,19.03167 2.61517,21.0674c0.12697,0.57596 -0.30111,1.23937 -0.30111,1.23937c0,0 -2.02606,0.24105 -2.7378,0.30584c-0.33147,0.03017 -0.90654,-0.49193 -0.90654,-0.49193l-1.15552,-6.79224l-2.66659,-0.18609c0,0 -1.69293,1.45406 -2.25353,1.80615c-0.29642,0.18617 -0.85749,0.14778 -0.85749,0.14778z" fill="none" stroke="#000000" stroke-width="1" stroke-linecap="round"/><path d="M49.44179,326.22347c0,0 0.35799,-0.38589 0.47899,-0.03179c0.21072,0.61665 1.20726,3.30888 1.52132,4.64686c0.12779,0.54444 -0.21051,0.62268 -0.21051,0.62268c0,0 -3.52775,-0.24573 -4.19151,-0.34282c-0.24327,-0.03559 -0.01942,-0.27312 -0.01942,-0.27312z" fill="none" stroke="#000000" stroke-width="1" stroke-linecap="round"/><path d="M88.55452,336.45982c-0.63626,-0.25016 -1.5211,-0.18736 -1.90878,-0.75049c-0.33298,-0.48369 0.08978,-1.17254 0.18612,-1.75181c0.19479,-1.17115 0.63946,-2.15446 1.18987,-3.1854c0.67302,-1.2606 1.16911,-2.6114 2.00808,-3.78199c0.21921,-0.30586 0.97289,-1.06766 1.12681,-1.50311c0.23243,-0.65757 0.15379,-1.41415 0.45862,-2.04145c0.73628,-1.51518 1.8426,-2.89637 2.65008,-4.39752c0,0 0.07976,-0.14812 0.23447,-0.2859c0.02167,-0.50394 0.43707,-0.90586 0.94636,-0.90586c0.30938,0 0.58413,0.14833 0.757,0.37775l0.68742,0.89364l-0.11448,0.08806c0.06043,-0.00113 0.11744,0.01542 0.16945,0.05763c0.31484,0.25548 0.13914,0.79892 0.2013,1.19958c0.07304,0.47075 0.11038,0.93307 0.12936,1.39536c0.52588,0.71494 0.51178,2.69762 0.68776,3.44818c0.42385,1.80778 0.49608,3.4895 0.71202,5.30787c0.12319,1.03733 0.23168,2.03558 0.40853,3.06848c0.18093,1.05672 0.49947,2.07843 0.49947,3.14447c0,0.75498 -0.03536,1.51057 -0.00461,2.26492c0.02128,0.5219 0.37941,1.1158 0.10977,1.56316c-0.57377,0.95193 -1.2164,1.05746 -1.87126,0.86352l-0.00871,0.06096l-0.95726,-0.13675c-0.46239,-0.05854 -0.82085,-0.45041 -0.82699,-0.92724c-0.2273,-0.37737 -0.22006,-0.99401 -0.34151,-1.4376c-0.23285,-0.85051 -0.02414,-1.8672 -0.30471,-2.71784c-0.12699,-0.385 -0.58919,-0.69517 -0.52749,-1.09585c0.02558,-0.16612 -1.30421,-0.62811 -2.578,-0.41183c-1.48186,0.2516 -2.98595,1.22507 -3.71869,1.59708zM95.18684,331.83786l-0.01178,-0.17671l1.0312,-0.06875c0.02384,-0.0018 0.04792,-0.00271 0.07222,-0.00271c0.00445,0 0.00889,0.00003 0.01333,0.00009c-0.2468,-1.54599 -0.98741,-4.55615 -1.1231,-4.55615c-0.35549,0 -0.66523,-0.19582 -0.82726,-0.48548l-0.15459,-0.26501c-0.13826,0.1127 -0.29911,0.22606 -0.47987,0.34221c-0.11162,0.07172 -0.23998,0.10535 -0.37272,0.12949c-0.04804,0.12862 -0.10179,0.25576 -0.16289,0.381c-0.41532,0.85123 -1.05048,1.65033 -1.61693,2.4682c-0.01004,0.06381 -0.02028,0.12595 -0.03101,0.18607c-0.05815,0.32589 -0.11228,0.65419 -0.20808,0.97105c-0.04451,0.1472 -0.26334,0.26676 -0.20976,0.4109c0.04919,0.13233 0.26639,0.10198 0.40659,0.11861c0.7162,0.0849 1.44504,0.17725 2.12042,0.43022c0.06873,0.02574 0.13763,0.05145 0.20673,0.07689h0.04367c0.4329,-0.04468 0.86956,-0.02373 1.30384,0.04009z" fill="url(#color-6)" stroke="none" stroke-width="2.5" stroke-linecap="butt"/><path d="M86.45882,336.08178c0,0 -0.35919,-0.54479 -0.067,-1.14998c1.09517,-2.26839 7.26681,-15.69106 7.26681,-15.69106c0,0 1.23486,-1.06462 1.69219,-1.04433c1.35255,0.05999 1.5911,0.49428 1.77138,1.25431c1.28421,5.41417 2.16638,19.03167 2.61517,21.0674c0.12697,0.57596 -0.30111,1.23937 -0.30111,1.23937c0,0 -2.02606,0.24105 -2.7378,0.30584c-0.33147,0.03017 -0.90654,-0.49193 -0.90654,-0.49193l-1.15552,-6.79224l-2.66659,-0.18609c0,0 -1.69293,1.45406 -2.25353,1.80615c-0.29642,0.18617 -0.85749,0.14778 -0.85749,0.14778z" fill="none" stroke="#000000" stroke-width="1" stroke-linecap="round"/><path d="M93.86752,326.22347c0,0 0.35799,-0.38589 0.47899,-0.03179c0.21072,0.61665 1.20726,3.30888 1.52132,4.64686c0.12779,0.54444 -0.21051,0.62268 -0.21051,0.62268c0,0 -3.52775,-0.24573 -4.19151,-0.34282c-0.24327,-0.03559 -0.01942,-0.27312 -0.01942,-0.27312z" fill="none" stroke="#000000" stroke-width="1" stroke-linecap="round"/><path d="M102.45985,319.94611c-0.12816,-0.57504 -0.20082,-1.19047 0.0071,-1.6707c0.70859,-1.63658 2.05041,-1.43768 3.48119,-1.4337c2.52341,0.00701 4.79629,0.46438 6.23374,2.60184c0.64436,1.07395 1.43256,2.21067 2.13542,3.24743c0.24465,0.36088 0.25875,0.86943 0.32931,1.29967c0.08055,0.49118 -0.05322,1.03207 -0.32644,1.50623c0.06239,0.12294 0.09757,0.26203 0.09757,0.40933c0,0.17577 -0.05007,0.33985 -0.13673,0.47874l-0.48908,0.81514c-0.33912,0.67151 -0.80844,1.42035 -0.91104,2.32437c-0.05683,0.50073 -3.14594,1.79741 -3.03119,2.33765c0.03787,0.17831 0.55567,-0.03071 0.97928,0.05573c1.11341,0.22719 2.85543,0.57663 3.09751,1.00228c0.40939,0.71986 1.1122,1.7283 1.42705,2.54276c0.84809,2.19393 0.29381,4.70686 0.32741,4.80903c0.05902,0.17947 -2.92642,1.30543 -5.02667,1.98668c-0.65189,0.21145 -2.68609,-1.18314 -2.28258,-2.40244c0.13464,-0.40684 2.2792,-0.72608 3.04968,-1.30452c0.41747,-0.96311 -0.38918,-0.02398 0.32964,-1.13388c-0.08722,-1.22115 -0.56144,-2.05053 -1.45995,-2.3101c-0.42216,-0.12196 -1.10742,0.63404 -1.26414,0.65141c-0.20099,0.02227 -0.36342,1.07053 -0.28648,1.70348c0.07133,0.58678 0.3636,0.73292 0.64779,1.42969c1.04005,2.54996 2.16101,3.97473 2.02945,3.18539c-0.03085,-0.34039 -0.15628,0.42868 -1.69059,0.46969c-1.53136,0.04093 -4.85251,-0.30559 -5.93068,-1.48918c-0.97511,-1.07045 -0.49031,-2.86765 -0.32938,-4.44669c0.18975,-1.86191 0.16162,-3.46275 0.13426,-3.82489c-0.07465,-0.98821 0.09284,-2.02786 0.00443,-3.02251c-0.17774,-1.99975 -0.60487,-3.95794 -0.84995,-5.9473c-0.16412,-1.33218 -0.32805,-2.57341 -0.29595,-3.87065zM111.43913,325.66191c-0.13625,-0.33578 -0.18418,-0.74688 -0.32533,-1.07621c-0.61132,-1.42633 -1.23297,-2.72251 -2.33605,-3.82558c-0.29803,-0.29802 -0.2552,-0.73714 -0.66493,-0.83597c-0.29323,-0.07073 -0.57143,0.38535 -0.7159,0.65014c-0.16589,0.30403 -0.24898,1.27389 -0.24898,1.27389c-0.03022,0.43992 -1.6936,2.95101 -1.42346,3.71063c0.338,0.95046 2.63159,0.12319 2.65634,0.12007c0.49969,-0.06306 2.24106,-0.16257 3.05831,-0.01697z" fill="url(#color-7)" stroke="none" stroke-width="0.5" stroke-linecap="butt"/><path d="M103.00722,340.06021c0,0 1.28373,-5.41638 0.6192,-10.78466c-0.29331,-2.36947 -0.90314,-11.37316 -0.90314,-11.37316c0,0 0.77655,-0.99756 1.33657,-1.07389c1.70711,-0.23266 5.09576,-0.42189 6.619,0.48286c2.12297,1.26095 4.66662,7.22223 4.66662,7.22223c0,0 -0.79569,3.15415 -1.64085,4.17672c-0.4543,0.54966 -1.65709,1.52736 -2.7593,2.10902c-0.93986,0.49598 -1.83243,0.62646 -1.84441,0.80124c-0.0064,0.0934 4.07938,-0.22724 5.32131,1.56242c1.17279,1.69002 1.76508,4.04612 1.5447,6.38224c-0.59692,0.7189 -1.32137,1.52234 -2.59797,2.0114c-2.19615,0.84133 -5.09828,1.12349 -5.09828,1.12349c0,0 -2.6607,-0.49349 -3.36375,-0.66042c-0.35754,-0.08489 -1.89969,-1.97948 -1.89969,-1.97948z" fill="none" stroke="#000000" stroke-width="1" stroke-linecap="round"/><path d="M108.12305,320.03681c0,0 0.38755,-0.46264 0.57553,-0.08619c0.32737,0.65556 1.84926,3.5095 2.38645,4.94723c0.21859,0.58503 -0.18134,0.70725 -0.18134,0.70725c0,0 -4.29527,0.1071 -5.10943,0.07133c-0.29839,-0.01311 -0.05561,-0.29826 -0.05561,-0.29826z" fill="none" stroke="#000000" stroke-width="1" stroke-linecap="round"/><path d="M110.69939,335.3628c0.39738,0.30326 1.05831,1.59869 1.05831,1.59869c0,0 -0.69091,1.45859 -0.89495,1.88934c-0.10605,0.22388 -0.74694,0.19459 -0.74694,0.19459c0,0 -1.02491,-0.51184 -1.23469,-1.47241c-0.18771,-0.85951 0.66634,-2.12712 0.66634,-2.12712c0,0 0.74947,-0.39024 1.15192,-0.0831z" fill="none" stroke="#000000" stroke-width="1" stroke-linecap="round"/><path d="M77.96529,303.64078c0.46565,1.01876 1.84831,3.69641 2.60249,5.11555c1.00786,1.8965 1.22588,6.20299 1.22588,6.20299c0,0 -1.3649,2.78922 -1.97123,3.77246c-0.38921,0.63115 -1.31369,1.55443 -1.31369,1.55443c0,0 -0.44278,0.38068 -1.10039,0.55638c-1.63739,0.43749 -3.27493,1.69932 -4.76759,1.90239c-0.50238,0.06835 -2.65506,0.47102 -2.65506,0.47102c0,0 -2.73268,-0.12848 -3.90901,-0.15649c-0.4317,-0.01028 -2.48327,-0.55377 -2.48327,-0.55377l-8.25669,-2.3971c0,0 -1.84794,-1.67495 -2.72837,-2.43825c-1.3178,-1.14249 -1.24825,-3.10071 -1.24825,-3.10071c0,0 0.81608,-4.4166 1.88121,-6.3279c1.22189,-2.1926 4.44005,-5.6221 4.44005,-5.6221l1.91688,-6.21572c0,0 0.25231,-1.34309 0.60454,-0.91591c0.7334,0.88944 3.5682,5.97646 3.5682,5.97646h8.25669c0,0 2.01138,-4.92604 2.63258,-6.23382c0.38,-0.8 0.74113,1.26205 0.74113,1.26205c0,0 1.7808,5.43475 2.5639,7.14803z" fill="none" stroke="#000000" stroke-width="0" stroke-linecap="round"/><path d="M66.33951,319.66954c0,0 0.91913,0.37564 1.13546,0.85308c0.47472,1.04766 2.27461,5.11456 2.27461,5.11456c0,0 -0.22314,0.81656 -0.84461,0.76216c-1.6087,-0.14082 -4.61702,-0.40525 -5.49167,-0.48955c-0.18726,-0.01805 -0.54475,0.16221 -0.78036,0.47593c-0.30003,0.39948 -0.4613,0.9565 -0.4613,0.9565c0,0 -0.20953,1.71922 -0.23035,3.50543c-0.01779,1.5263 0.15332,3.10153 0.1465,3.69484c-0.00533,0.4637 0.2733,0.75658 0.2733,0.75658c0,0 0.37376,0.26011 0.9456,0.23918c0.96645,-0.03536 4.0288,-0.14739 5.59511,-0.2047c0.57049,-0.02087 1.22669,1.00748 1.22669,1.00748c0,0 -0.19761,2.43766 -0.36756,3.49135c-0.08814,0.54648 -0.86386,1.33959 -0.86386,1.33959c0,0 -4.94911,-0.18736 -6.74135,-0.90761c-0.17105,-0.06874 -0.9163,-0.1608 -1.09568,-0.27022c-1.44749,-0.8829 -2.48792,-2.89532 -2.48792,-2.89532c0,0 -0.74307,-2.54099 -0.81818,-5.20547c-0.06645,-2.35733 0.72345,-4.81132 0.72345,-5.68783c0,-0.57854 0.56835,-2.65228 0.56835,-2.65228c0,0 2.29401,-2.53627 3.72205,-3.32416c1.30849,-0.72193 3.57172,-0.55954 3.57172,-0.55954z" fill="url(#color-8)" stroke="#000000" stroke-width="1" stroke-linecap="round"/><path d="M73.37947,320.51446c-0.12816,-0.57504 -0.20082,-1.19047 0.0071,-1.6707c0.70859,-1.63658 2.05041,-1.43768 3.48119,-1.4337c2.52341,0.00701 4.51212,0.74855 5.94957,2.88602c0.64436,1.07395 1.30626,2.14752 2.00912,3.18428c0.24465,0.36088 0.66923,0.64841 0.73978,1.07865c0.08055,0.49118 -0.05322,1.03207 -0.32644,1.50623c0.06239,0.12294 0.09757,0.26203 0.09757,0.40933c0,0.17577 -0.05007,0.33985 -0.13673,0.47874l-0.48908,0.81514c-0.33912,0.67151 -0.80844,1.42035 -0.91104,2.32437c-0.12488,1.10037 0.20232,2.38505 0.81555,3.46333c1.51216,2.65893 1.27536,7.14403 1.32143,7.28413c0.14112,0.4291 -2.67804,2.65898 -4.04635,0.66923c-0.89572,-1.30254 -1.02081,-7.78295 -1.45057,-8.61467c-0.32074,-0.62072 -0.82193,-0.47061 -0.84,-0.24903c-0.13862,1.70029 -0.24083,3.67379 -0.24157,5.39682c-0.0003,0.70357 0.08138,1.62416 -0.11779,2.29894c-0.17166,0.5816 0.07193,0.94898 -0.42372,1.29835c-0.33935,0.2392 -0.83091,-0.12114 -1.24336,-0.07361c-0.46847,0.054 -0.94282,0.58558 -1.36435,0.37416c-1.35511,-0.67967 -2.18086,0.46972 -2.38714,-0.76797c-0.1223,-1.3497 0.80019,-6.46853 0.69828,-7.81759c-0.07465,-0.98821 -0.50709,-1.90156 -0.59549,-2.89621c-0.17774,-1.99975 -0.00495,-4.08423 -0.25003,-6.0736c-0.16412,-1.33218 -0.32805,-2.57341 -0.29595,-3.87065zM81.94828,326.57758c-0.13625,-0.33578 -0.18418,-0.74688 -0.32533,-1.07621c-0.61132,-1.42633 -1.23298,-2.72251 -2.33605,-3.82558c-0.29803,-0.29802 -0.2552,-0.73714 -0.66492,-0.83597c-0.29323,-0.07073 -0.57143,0.38535 -0.7159,0.65014c-0.16589,0.30403 -0.24898,1.27389 -0.24898,1.27389c-0.06802,0.99036 -0.47523,1.85711 -0.39728,2.86384c0.01743,0.22511 -0.04022,0.9212 0.23984,1.1448c0.30383,0.24258 1.3458,-0.17233 1.39032,-0.17794c0.49969,-0.06306 2.24106,-0.16257 3.05831,-0.01697z" fill="url(#color-9)" stroke="none" stroke-width="0.5" stroke-linecap="butt"/><path d="M73.45322,340.91273c0,0 1.28373,-5.41638 0.6192,-10.78466c-0.29331,-2.36947 -0.90314,-11.37316 -0.90314,-11.37316c0,0 0.77655,-0.99756 1.33657,-1.07389c1.70711,-0.23266 5.09576,-0.42189 6.619,0.48286c2.12297,1.26095 4.66662,7.22223 4.66662,7.22223c0,0 -0.79569,3.15415 -1.64085,4.17672c-0.84168,1.01836 -0.30719,1.66438 0.52716,3.49936c1.07043,2.3542 0.91299,8.28734 0.91176,8.37647c-0.00569,0.41097 -1.03224,0.71796 -2.13459,0.57567c-0.50906,-0.06571 -1.25785,0.07086 -1.52899,-0.45671c-0.6919,-1.34627 -0.8151,-8.09777 -1.40264,-8.96022c-0.44975,-0.66019 -0.95038,-0.50405 -0.9764,-0.12431c-0.03361,0.49041 -0.64081,9.46923 -0.64081,9.46923c0,0 -4.17629,0.35903 -4.87933,0.1921c-0.35754,-0.08489 -0.57355,-1.22169 -0.57355,-1.22169z" fill="none" stroke="#000000" stroke-width="1" stroke-linecap="round"/><path d="M78.48253,321.725c0,0 0.24922,-0.49202 0.4733,-0.17027c0.39023,0.56032 2.17104,2.98453 2.87354,4.24161c0.28586,0.51152 -0.03233,0.68797 -0.03233,0.68797c0,0 -3.62435,0.77064 -4.32097,0.86441c-0.25531,0.03437 -0.09838,-0.2695 -0.09838,-0.2695z" fill="none" stroke="#000000" stroke-width="1" stroke-linecap="round"/><text transform="translate(112.07328,195.76875) scale(1.36674,1.36674)" font-size="40" xml:space="preserve" fill="#000000" fill-rule="nonzero" stroke="none" stroke-width="1" stroke-linecap="butt" stroke-linejoin="miter" stroke-miterlimit="10" stroke-dasharray="" stroke-dashoffset="0" font-family="Sans Serif" font-weight="normal" text-anchor="start" style="mix-blend-mode: normal"><tspan x="0" dy="0">Loading...</tspan></text></g></g></svg>