<svg version="1.1" xmlns="http://www.w3.org/2000/svg" xmlns:xlink="http://www.w3.org/1999/xlink" width="113.75" height="42.625" viewBox="0,0,113.75,42.625"><g transform="translate(-183.125,-158.6875)"><g data-paper-data="{&quot;isPaintingLayer&quot;:true}" fill-rule="nonzero" stroke="none" stroke-linecap="butt" stroke-linejoin="miter" stroke-miterlimit="10" stroke-dasharray="" stroke-dashoffset="0" style="mix-blend-mode: normal"><path d="M187.125,201.3125c-2.20914,0 -4,-1.79086 -4,-4v-28.625c0,-2.20914 1.79086,-4 4,-4h101.25c2.20914,0 4,1.79086 4,4v28.625c0,2.20914 -1.79086,4 -4,4z" fill="#000000" stroke-width="0"/><path d="M191.625,195.3125c-2.20914,0 -4,-1.79086 -4,-4v-28.625c0,-2.20914 1.79086,-4 4,-4h101.25c2.20914,0 4,1.79086 4,4v28.625c0,2.20914 -1.79086,4 -4,4z" fill="#a1f471" stroke-width="0"/><text transform="translate(201.8163,187.6913) scale(0.62358,0.62358)" font-size="40" xml:space="preserve" fill="#000000" fill-rule="nonzero" stroke="none" stroke-width="1" stroke-linecap="butt" stroke-linejoin="miter" stroke-miterlimit="10" stroke-dasharray="" stroke-dashoffset="0" font-family="&quot;Snap ITC&quot;, Sans Serif" font-weight="normal" text-anchor="start" style="mix-blend-mode: normal"><tspan x="0" dy="0">Clear</tspan></text><text transform="translate(203.48296,185.02463) scale(0.62358,0.62358)" font-size="40" xml:space="preserve" fill="#ffffff" fill-rule="nonzero" stroke="none" stroke-width="1" stroke-linecap="butt" stroke-linejoin="miter" stroke-miterlimit="10" stroke-dasharray="" stroke-dashoffset="0" font-family="&quot;Snap ITC&quot;, Sans Serif" font-weight="normal" text-anchor="start" style="mix-blend-mode: normal"><tspan x="0" dy="0">Clear</tspan></text></g></g></svg>