<svg version="1.1" xmlns="http://www.w3.org/2000/svg" xmlns:xlink="http://www.w3.org/1999/xlink" width="153.77622" height="72.31277" viewBox="0,0,153.77622,72.31277"><defs><linearGradient x1="239.14725" y1="158.84883" x2="239.14725" y2="228.1544" gradientUnits="userSpaceOnUse" id="color-1"><stop offset="0" stop-color="#eaff00"/><stop offset="1" stop-color="#ff0000"/></linearGradient></defs><g transform="translate(-162.25916,-155.84163)"><g data-paper-data="{&quot;isPaintingLayer&quot;:true}" fill-rule="nonzero" stroke-linejoin="miter" stroke-miterlimit="10" stroke-dasharray="" stroke-dashoffset="0" style="mix-blend-mode: normal"><path d="M316.03538,193.50161c0,19.1382 -34.42398,34.65279 -76.88811,34.65279c-42.46414,0 -76.88811,-15.51458 -76.88811,-34.65279c0,-19.1382 34.42398,-34.65279 76.88811,-34.65279c42.46414,0 76.88811,15.51458 76.88811,34.65279z" fill="url(#color-1)" stroke="#000000" stroke-width="0" stroke-linecap="butt"/><path d="M239.00569,209.10789c-1.67924,-0.66024 -4.01455,-0.4945 -5.03772,-1.98073c-0.87882,-1.27656 0.23694,-3.09462 0.49121,-4.62344c0.5141,-3.09093 1.68769,-5.68613 3.14035,-8.40703c1.77626,-3.32701 3.08556,-6.8921 5.2998,-9.98158c0.57855,-0.80723 2.5677,-2.81781 2.97392,-3.96706c0.61344,-1.73549 0.40589,-3.73228 1.21041,-5.38788c1.94323,-3.99891 4.86305,-7.6442 6.9942,-11.60609c0,0 0.2105,-0.39092 0.61882,-0.75457c0.05718,-1.33003 1.15354,-2.39077 2.49766,-2.39077c0.81654,0 1.54165,0.39147 1.9979,0.99696l1.81426,2.35853l-0.30214,0.23242c0.1595,-0.00298 0.30994,0.04069 0.44722,0.15209c0.83093,0.67426 0.36722,2.10855 0.53129,3.16598c0.19278,1.24243 0.29133,2.46259 0.34141,3.68268c1.38793,1.8869 1.35072,7.11967 1.81516,9.10057c1.11865,4.77117 1.30927,9.20962 1.87919,14.00872c0.32512,2.73775 0.61147,5.37239 1.07821,8.09844c0.47751,2.78893 1.31823,5.48547 1.31823,8.29899c0,1.99256 -0.09333,3.98676 -0.01217,5.97767c0.05615,1.37743 1.00135,2.94487 0.2897,4.12555c-1.51431,2.51236 -3.21036,2.7909 -4.9387,2.27903l-0.02298,0.16088l-2.52644,-0.36092c-1.22035,-0.15451 -2.16641,-1.18875 -2.18262,-2.4472c-0.5999,-0.99596 -0.58079,-2.62342 -0.90132,-3.79417c-0.61454,-2.24469 -0.0637,-4.92797 -0.80421,-7.17301c-0.33515,-1.0161 -1.555,-1.83473 -1.39218,-2.89222c0.06751,-0.43843 -3.44213,-1.65774 -6.80396,-1.08693c-3.91097,0.66404 -7.88063,3.23326 -9.8145,4.21508zM256.50996,196.90944l-0.03109,-0.46638l2.72157,-0.18144c0.06292,-0.00474 0.12648,-0.00716 0.19061,-0.00716c0.01174,0 0.02347,0.00008 0.03517,0.00024c-0.65136,-4.08024 -2.606,-12.02475 -2.96412,-12.02475c-0.93821,0 -1.75571,-0.51682 -2.18334,-1.28129l-0.408,-0.69943c-0.36491,0.29745 -0.78942,0.59662 -1.26649,0.90316c-0.2946,0.18929 -0.63337,0.27804 -0.9837,0.34175c-0.12678,0.33945 -0.26864,0.67501 -0.42991,1.00555c-1.09613,2.2466 -2.77246,4.35562 -4.26747,6.51416c-0.0265,0.1684 -0.05352,0.33242 -0.08183,0.49108c-0.15346,0.86009 -0.29633,1.72655 -0.54918,2.56283c-0.11746,0.3885 -0.69501,0.70404 -0.5536,1.08447c0.12982,0.34925 0.70307,0.26916 1.07308,0.31303c1.89021,0.22408 3.81379,0.4678 5.5963,1.13546c0.18139,0.06794 0.36324,0.13579 0.54562,0.20292h0.11525c1.14252,-0.11793 2.29497,-0.06263 3.44113,0.1058z" fill="#ffffff" stroke="none" stroke-width="0.5" stroke-linecap="butt"/><path d="M183.48058,164.90133c-0.35376,-1.58729 -0.55433,-3.28606 0.01961,-4.61164c1.95594,-4.51748 5.65978,-3.96845 9.60916,-3.95747c6.96539,0.01936 12.45484,2.06623 16.42266,7.9663c1.77865,2.96443 3.60569,5.92783 5.54579,8.7896c0.67531,0.99613 1.84728,1.78981 2.04203,2.97741c0.22233,1.35582 -0.14691,2.84885 -0.90107,4.15765c0.17223,0.33936 0.26931,0.72329 0.26931,1.12989c0,0.48518 -0.13821,0.93808 -0.37741,1.32148l-1.35002,2.25004c-2.07547,4.10971 -3.04426,5.23233 -7.65714,6.19952c-0.18798,-0.04461 -0.40024,-0.09824 -0.6315,-0.15716c-0.56913,0.02796 -1.24204,-0.01218 -1.94571,-0.09146l-2.25858,0.61598c-0.22596,0.06712 -0.46529,0.10315 -0.71304,0.10315c-0.71178,0 -0.88811,0.76274 -0.66698,1.43513c0.83486,2.53848 1.02969,3.45915 0.81095,6.14227c-0.38262,4.69332 -0.92624,9.09491 -0.92827,13.85102c-0.00083,1.94207 0.74758,3.96023 0.19781,5.82287c-0.47385,1.60541 -1.10879,3.40389 -2.47695,4.36826c-0.93671,0.66026 -2.29357,-0.3344 -3.43206,-0.20318c-1.29313,0.14904 -2.60248,1.61638 -3.76601,1.03279c-3.74053,-1.87611 -3.1437,-9.16218 -3.7131,-12.57859c-0.33759,-3.72559 -0.66738,-7.3964 -0.94869,-11.12022c-0.20606,-2.72776 -1.39971,-5.2489 -1.64373,-7.99445c-0.49061,-5.51993 -0.01366,-11.27376 -0.69017,-16.76502c-0.45303,-3.67722 -0.9055,-7.10342 -0.8169,-10.68419zM207.13317,181.63743c-0.37609,-0.92684 -0.50839,-2.06161 -0.89802,-2.97068c-1.68744,-3.93713 -3.4034,-7.51496 -6.44824,-10.5598c-0.82264,-0.82264 -0.70444,-2.03473 -1.8354,-2.30754c-0.80941,-0.19524 -1.57731,1.06368 -1.97611,1.79459c-0.4579,0.83923 -0.68727,3.51632 -0.68727,3.51632c-0.18777,2.73369 -1.31178,5.12621 -1.09661,7.9051c0.04811,0.62137 -0.11104,2.54279 0.66202,3.16002c0.83865,0.66959 3.71483,-0.47568 3.83772,-0.49118c1.3793,-0.17406 6.18603,-0.44874 8.44189,-0.04683z" fill="#ffffff" stroke="none" stroke-width="0.5" stroke-linecap="butt"/><path d="M187.86766,221.46837c0,0 -0.64001,-15.21237 -2.47432,-30.03047c-0.80963,-6.54047 -2.49295,-31.39344 -2.49295,-31.39344c0,0 2.14353,-2.7536 3.68935,-2.96428c4.71216,-0.64221 14.06587,-1.16453 18.2705,1.33284c5.86005,3.48062 12.88132,19.9356 12.88132,19.9356c0,0 -2.19635,8.70643 -4.52925,11.52903c-2.32328,2.81097 -8.1249,2.04818 -10.42186,1.73305c-0.56976,-0.07817 -1.28833,0.8027 -1.29439,1.2405c-0.05563,4.01837 -0.18638,24.2142 -0.46847,28.33038c-0.09277,1.35369 -2.29176,2.86731 -2.29176,2.86731c0,0 -7.86729,0.99103 -9.80792,0.53025c-0.98691,-0.23433 -1.06023,-3.11077 -1.06023,-3.11077z" fill="none" stroke="#000000" stroke-width="2.5" stroke-linecap="round"/><path d="M230.63068,162.21347c0,0 1.73976,-2.12339 2.61847,-2.0291c2.19883,0.23596 10.59433,2.21676 10.59433,2.21676c0,0 1.1719,1.25825 0.55444,2.79829c-2.53484,6.3223 -21.11786,48.49012 -21.11786,48.49012l13.30705,-0.73327c0,0 1.99648,1.03675 2.00267,2.09291c0.00891,1.51845 -0.44902,5.77473 -1.62862,8.23016c-0.53805,1.12 -2.35359,1.78681 -2.35359,1.78681l-26.58576,-1.79467c0,0 -2.40582,-1.96381 -1.68973,-3.69083c2.99534,-7.22399 24.29861,-57.36718 24.29861,-57.36718z" fill="#ffffff" stroke="#000000" stroke-width="2.5" stroke-linecap="round"/><path d="M233.22464,207.86017c0,0 -0.94798,-1.43782 -0.17684,-3.03506c2.8904,-5.98683 19.17882,-41.41242 19.17882,-41.41242c0,0 3.25908,-2.80978 4.46608,-2.75624c3.56971,0.15833 4.1993,1.30452 4.67508,3.31041c3.38933,14.28927 5.71759,50.22907 6.90205,55.60186c0.33511,1.52009 -0.79471,3.27099 -0.79471,3.27099c0,0 -5.34725,0.6362 -7.22571,0.80719c-0.87484,0.07963 -2.39258,-1.29832 -2.39258,-1.29832l-3.0497,-17.92633l-7.03777,-0.49114c0,0 -4.46803,3.8376 -5.94761,4.76687c-0.78232,0.49134 -2.26313,0.39002 -2.26313,0.39002z" fill="none" stroke="#000000" stroke-width="2.5" stroke-linecap="round"/><path d="M197.56662,167.98133c0,0 0.68793,-1.35813 1.30645,-0.46999c1.07714,1.54666 5.99275,8.23822 7.93187,11.70816c0.78905,1.41196 -0.08923,1.899 -0.08923,1.899c0,0 -10.00434,2.1272 -11.92723,2.38605c-0.70474,0.09487 -0.27157,-0.74391 -0.27157,-0.74391z" fill="none" stroke="#000000" stroke-width="2.5" stroke-linecap="round"/><path d="M252.77794,181.84174c0,0 0.94482,-1.01846 1.26416,-0.08391c0.55613,1.62749 3.18625,8.73291 4.01512,12.26416c0.33727,1.43691 -0.55558,1.64339 -0.55558,1.64339c0,0 -9.31057,-0.64854 -11.0624,-0.90479c-0.64205,-0.09392 -0.05125,-0.72083 -0.05125,-0.72083z" fill="none" stroke="#000000" stroke-width="2.5" stroke-linecap="round"/><path d="M274.98208,162.58546c0,0 2.33664,-2.36008 3.08206,-2.67973c0.8127,-0.34851 3.72111,1.67374 3.72111,1.67374c0,0 -1.08529,12.64281 -0.03735,16.46254c0.53438,1.9478 2.85246,5.16607 2.85246,5.16607c0,0 3.08765,-2.45179 3.64835,-4.30517c1.02207,-3.37847 2.92023,-15.05998 2.92023,-15.05998c0,0 2.70837,-2.77989 3.78365,-2.38239c1.18228,0.43706 3.25412,5.14884 3.25412,5.14884c0,0 -0.68647,8.45968 -2.42602,16.29927c-1.12068,5.05053 -3.428,9.95079 -3.77191,11.80899c-0.29138,1.57441 -2.02063,2.07063 -3.27137,5.15849c-2.26003,5.5796 -4.10689,17.62517 -4.57014,20.10832c-0.25,1.34007 -2.14742,2.70841 -2.14742,2.70841c0,0 -4.21796,-0.62823 -5.88339,-0.80677c-0.82756,-0.08872 -1.59959,-1.99719 -1.35044,-3.48734c0.51885,-3.10316 3.48035,-21.10692 3.48035,-21.10692c0,0 -0.16314,-3.43672 -0.68024,-4.39619c-1.0731,-1.99109 -4.94998,-9.18456 -4.94998,-9.18456l2.34592,-21.12562z" fill="#ffffff" stroke="#000000" stroke-width="2.5" stroke-linecap="round"/></g></g></svg>