<svg version="1.1" xmlns="http://www.w3.org/2000/svg" xmlns:xlink="http://www.w3.org/1999/xlink" width="18.39556" height="27.3717" viewBox="0,0,18.39556,27.3717"><g transform="translate(-236.41634,-179.91601)"><g data-paper-data="{&quot;isPaintingLayer&quot;:true}" fill-rule="nonzero" stroke="#000000" stroke-width="1.5" stroke-linecap="round" stroke-linejoin="miter" stroke-miterlimit="10" stroke-dasharray="" stroke-dashoffset="0" style="mix-blend-mode: normal"><path d="M244.23313,206.36546c0,0 0.31874,-4.00476 -0.39147,-5.22577c-0.45375,-0.78008 -2.45924,-1.51244 -2.45924,-1.51244c0,0 -3.01104,-0.68898 -3.64267,-1.5617c-0.70074,-0.96819 -0.57381,-4.8688 -0.57381,-4.8688c0,0 1.06792,-0.62442 1.85372,-0.4641c0.26427,0.05392 0.85474,1.41729 1.52959,2.05937c0.47565,0.45256 1.13429,0.2571 1.13429,0.2571c0,0 0.25653,-1.1363 0.09215,-1.86588c-0.69189,-3.07096 -2.01486,-7.57805 -2.44662,-9.49442c-0.17628,-0.78245 0.67893,-2.85125 1.36555,-3.02281c0.70391,-0.17589 2.48391,1.06015 2.64174,1.81694c0.41129,1.97218 1.46776,7.76283 1.46776,7.76283c0,0 2.30532,-0.74942 3.35963,-0.75557c1.35871,-0.00793 3.95009,1.64521 3.90356,2.57193c-0.13014,2.59183 -0.22702,7.42906 -0.06756,9.3542c0.11906,1.4374 1.46945,3.17574 1.46945,3.17574z" fill="#ffd9ad"/><path d="M244.17835,202.48254l7.33858,-1.55088l1.90831,3.46531l-9.31165,1.8929z" fill="#5845ff"/></g></g></svg>