<svg version="1.1" xmlns="http://www.w3.org/2000/svg" xmlns:xlink="http://www.w3.org/1999/xlink" width="33.94872" height="63.21506" viewBox="0,0,33.94872,63.21506"><g transform="translate(-220.50962,-143.11827)"><g data-paper-data="{&quot;isPaintingLayer&quot;:true}" fill-rule="nonzero" stroke-linejoin="miter" stroke-miterlimit="10" stroke-dasharray="" stroke-dashoffset="0" style="mix-blend-mode: normal"><path d="M241.34543,153.54988c-2.15467,0.27746 -4.42643,-0.09332 -6.59767,-0.00254c-1.97556,0.16556 -4.68158,0.37855 -5.88832,2.28378c-0.00619,0.00978 -0.15027,0.37969 -0.28874,0.82795c-0.01767,-0.1318 -0.11224,-0.16216 -0.11131,-0.17376c0.05993,-0.74365 0.29925,-1.03476 0.53182,-1.75908c0.95782,-2.98301 -0.82372,-5.48279 1.10853,-8.18938c2.72511,-1.95318 7.07475,-1.4466 10.20742,-0.79086c1.60052,0.33503 3.28446,1.15014 3.49019,3.0565c0.15822,1.46606 -1.43662,3.42137 -2.4395,4.7472z" data-paper-data="{&quot;noHover&quot;:false,&quot;origItem&quot;:[&quot;Path&quot;,{&quot;applyMatrix&quot;:true,&quot;segments&quot;:[[[244.94942,172.70103],[0,0],[0.94805,-1.36557]],[[247.19236,167.89439],[0.2178,1.4584],[-0.28321,-1.89639]],[[243.59901,165.00703],[1.61284,0.26956],[-3.15678,-0.5276]],[[233.50223,166.20044],[2.64329,-2.06256],[-1.82041,2.78305]],[[232.73072,174.37561],[0.83552,-3.01955],[-0.20288,0.73319]],[[232.26712,176.14894],[0.02959,-0.74547],[-0.00046,0.01163]],[[232.30635,176.37924],[-0.02302,-0.13097],[0.1201,-0.45352]],[[232.55942,175.53793],[-0.00579,0.01002],[1.12813,-1.9528]],[[238.41453,172.94348],[-1.96718,0.24589],[2.16574,-0.17914]],[[244.93703,172.70171],[-2.14158,0.36499],[0,0]]],&quot;closed&quot;:true,&quot;fillColor&quot;:[0,0,0],&quot;strokeWidth&quot;:0.5}]}" fill="#d79377" stroke="none" stroke-width="0.25" stroke-linecap="butt"/><path d="" fill="#000000" stroke="none" stroke-width="0.5" stroke-linecap="butt"/><path d="M249.29166,189.125c0,3.46205 0.50867,8.55325 -1.00208,11.02643c-1.93359,3.16539 -6.27122,3.26524 -9.53959,3.26524c-3.67571,0 -8.0787,0.44951 -9.9653,-3.4173c-1.10161,-2.25788 -0.57637,-7.96457 -0.57637,-10.87437c0,-7.89307 4.71966,-14.29167 10.54167,-14.29167c5.822,0 10.54167,6.3986 10.54167,14.29167z" fill="#5845ff" stroke="#000000" stroke-width="2.5" stroke-linecap="butt"/><path d="M231.16667,200.99999c2.78444,0 5.04167,0.91409 5.04167,2.04167c0,1.12758 -2.25723,2.04167 -5.04167,2.04167c-2.78444,0 -5.04167,-0.91409 -5.04167,-2.04167c0,-1.12758 2.25723,-2.04167 5.04167,-2.04167z" fill="#000000" stroke="#000000" stroke-width="2.5" stroke-linecap="butt"/><path d="M248.16667,200.91666c2.78444,0 5.04167,0.67157 5.04167,1.5c0,0.82843 -2.25723,1.5 -5.04167,1.5c-2.78444,0 -5.04167,-0.67157 -5.04167,-1.5c0,-0.82843 2.25723,-1.5 5.04167,-1.5z" fill="#000000" stroke="#000000" stroke-width="2.5" stroke-linecap="butt"/><path d="M231.41799,190.55724c0,0 -1.96896,1.60851 -2.21563,2.46774c-0.15759,0.54895 0.38629,1.78582 0.38629,1.78582c0,0 0.37298,1.36163 0.25099,2.03241c-0.13533,0.74417 -2.09246,1.05554 -2.09475,0.46604c-0.00161,-0.4155 -0.37938,-0.63075 -0.37938,-0.63075c0,0 -0.63142,0.38053 -0.89268,0.77517c-1.09974,1.66115 -2.66828,-0.09673 -2.66828,-0.09673c0,0 -1.35208,-0.7248 -1.81668,-1.20371c-0.59875,-0.61718 -0.97864,-2.52499 -0.53494,-2.90964c1.24093,-1.07579 3.49298,-3.15028 4.30253,-4.06634c0.60445,-0.68398 0.80703,-2.06223 0.80703,-2.06223z" data-paper-data="{&quot;index&quot;:null}" fill="#ffd9ad" stroke="#000000" stroke-width="1.5" stroke-linecap="round"/><path d="M229.66829,192.28301l-3.92278,-2.67292l0.74708,-2.38953l4.94323,3.4244z" data-paper-data="{&quot;index&quot;:null}" fill="#5845ff" stroke="#000000" stroke-width="1.5" stroke-linecap="round"/><path d="M247.58501,163.11189c0.23984,1.42164 -1.33334,2.94318 -2.55447,3.33916c-0.06353,0.0206 -0.65078,0.27731 -0.64897,0.29933c0.30365,3.70263 1.45651,7.75563 -3.24114,9.86987c-6.7157,3.02248 -11.69737,-2.9867 -13.62375,-8.41252c-0.47089,-1.3263 -0.36019,-3.47671 -1.05559,-4.592c-0.72081,-1.15605 -4.09752,-4.72892 -2.04562,-6.62008c0.55579,-0.51225 1.25773,-1.07466 2.01294,-1.04388c0.76289,0.0311 1.32968,1.71102 1.92802,1.23672c0.92132,-0.73035 1.77241,-1.86587 3.05287,-2.1703c0.00604,-0.0036 0.01209,-0.00717 0.01817,-0.01071c1.56057,-1.231 3.32062,-0.56548 4.94034,-0.66088c5.36031,-0.31575 10.33431,3.53211 11.21721,8.7653z" fill="#ffd9ad" stroke="none" stroke-width="0.5" stroke-linecap="butt"/><path d="M244.24898,169.6069c0.85395,-0.52035 1.3743,0.3336 1.3743,0.3336l0.19906,0.33424c1.63881,3.60198 -1.66655,6.4003 -4.96861,7.23903c-5.45227,1.38487 -11.66072,-0.31309 -12.93133,-6.32931c-1.30934,-6.41661 -1.31611,-13.45824 -1.05072,-19.96857c0,0 0.04073,-0.99917 1.0399,-0.95844c0.99917,0.04073 0.95844,1.0399 0.95844,1.0399c-0.25806,6.33049 -0.3025,13.24892 1.01081,19.48147c0.97567,4.8242 6.16398,5.95903 10.46812,4.79969c1.81857,-0.48984 4.95365,-2.16363 3.68005,-4.41837l-0.11363,-0.17893c0,0 -0.52035,-0.85395 0.3336,-1.3743z" fill="#000000" stroke="none" stroke-width="0.5" stroke-linecap="butt"/><path d="M243.72169,166.73131c-0.27733,-0.96078 0.68346,-1.23811 0.68346,-1.23811l0.91528,-0.25865c0.6228,-0.33403 1.75341,-0.6992 2.12423,-1.37348c0.43197,-0.78549 -1.27632,-2.0936 -1.63098,-2.53167c-1.57345,-1.94349 -3.17077,-4.1572 -4.4283,-6.31566c0,0 -0.50206,-0.86483 0.36277,-1.3669c0.86483,-0.50207 1.3669,0.36277 1.3669,0.36277c1.19569,2.06782 2.73577,4.19003 4.24199,6.04775c1.0931,1.34819 2.77223,2.6151 1.91406,4.61865c-0.54497,1.27234 -2.08428,1.82661 -3.20108,2.41275l-1.11021,0.326c0,0 -0.96078,0.27733 -1.23811,-0.68346z" fill="#000000" stroke="none" stroke-width="0.5" stroke-linecap="butt"/><path d="M244.49345,169.45695c-2.0266,-0.21611 -4.0298,-0.00963 -5.8318,-1.4647l-0.29956,-0.27422c0,0 -0.73532,-0.67772 -0.0576,-1.41304c0.67772,-0.73532 1.41304,-0.0576 1.41304,-0.0576l0.22039,0.205c1.45905,1.25361 2.84758,0.77628 4.62277,0.98609c0,0 0.26369,0.03297 0.50221,0.20086c0.33055,0.14707 0.50576,0.46448 0.50576,0.46448c0.21612,0.48633 0.16231,1.81772 0.1306,2.37432c-0.02506,0.4399 0.02078,0.11033 -0.17275,0.48378l-0.53269,0.49865c0,0 -0.46432,-1.81589 -0.50037,-2.00362z" data-paper-data="{&quot;index&quot;:null}" fill="#000000" stroke="none" stroke-width="0.5" stroke-linecap="butt"/><path d="M241.31266,153.50686c1.00288,-1.32582 2.59508,-3.24523 2.43686,-4.71129c-0.20573,-1.90635 -1.87224,-2.6963 -3.47276,-3.03133c-3.13267,-0.65574 -7.4119,-1.17202 -10.13701,0.78117c-1.93226,2.70659 -0.14604,5.15395 -1.10385,8.13696c-0.23258,0.72432 -0.47552,1.00933 -0.53545,1.75298c-0.00093,0.0116 0.01215,0.09991 0.02982,0.23171c0.13847,-0.44825 0.28093,-0.82053 0.28713,-0.8303c1.20673,-1.90523 3.98036,-2.18825 5.95593,-2.35381c2.17124,-0.09078 4.37227,0.30156 6.52693,0.0241zM241.34595,155.51447c-2.14215,0.22374 -4.29443,-0.12831 -6.44669,-0.03551c-1.13923,0.09548 -3.69404,0.15418 -4.37201,1.39529c-0.53134,0.97269 -0.21527,3.31757 -2.13124,3.34794c-1.52878,0.02423 -1.88929,-2.09962 -1.90519,-3.39363c-1.17673,-0.14108 -2.13602,0.23818 -1.85711,1.86194c0.40125,2.33593 2.62197,5.19109 3.54925,7.44865l0.27056,0.51245c0,0 0.46036,0.88773 -0.42736,1.34809c-0.88773,0.46036 -1.34809,-0.42736 -1.34809,-0.42736l-0.34803,-0.68041c-0.94905,-2.36746 -3.29274,-5.37775 -3.66661,-7.85797c-0.45191,-2.9979 1.62293,-4.44999 4.18537,-4.16484c0.30625,-0.85716 0.69584,-1.69696 0.65822,-2.61359c-0.12458,-3.0358 -0.78511,-4.40112 1.22103,-7.1268c4.04649,-2.93484 16.30009,-3.34224 17.01469,3.50198c0.2389,2.2881 -1.9399,4.76952 -3.16761,6.53623c0,0 -0.49634,0.714 -1.22915,0.34753z" fill="#000000" stroke="none" stroke-width="0.5" stroke-linecap="butt"/><path d="M241.34498,153.52942c-2.15466,0.27746 -4.42381,-0.09307 -6.59505,-0.00229c-1.97557,0.16556 -4.6843,0.3765 -5.89103,2.28173c-0.0062,0.00977 -0.15027,0.37979 -0.28874,0.82804c-0.01767,-0.1318 -0.11116,-0.16066 -0.11023,-0.17226c0.05993,-0.74365 0.29922,-1.03453 0.5318,-1.75885c0.95781,-2.98301 -0.82461,-5.48328 1.10765,-8.18987c2.72511,-1.95319 7.07605,-1.44639 10.20872,-0.79065c1.60052,0.33503 3.28386,1.15051 3.48959,3.05686c0.15822,1.46606 -1.4374,3.42123 -2.44028,4.74705z" data-paper-data="{&quot;noHover&quot;:false,&quot;origItem&quot;:[&quot;Path&quot;,{&quot;applyMatrix&quot;:true,&quot;segments&quot;:[[[241.31266,153.50686],[0,0],[1.00288,-1.32582]],[[243.74952,148.79557],[0.15822,1.46606],[-0.20573,-1.90635]],[[240.27676,145.76424],[1.60052,0.33503],[-3.13267,-0.65574]],[[230.13975,146.54541],[2.72511,-1.95319],[-1.93226,2.70659]],[[229.0359,154.68237],[0.95781,-2.98301],[-0.23258,0.72432]],[[228.50045,156.43535],[0.05993,-0.74365],[-0.00093,0.0116]],[[228.53027,156.66706],[-0.01767,-0.1318],[0.13847,-0.44825]],[[228.8174,155.83676],[-0.0062,0.00977],[1.20673,-1.90523]],[[234.77333,153.48295],[-1.97557,0.16556],[2.17124,-0.09078]],[[241.30026,153.50705],[-2.15466,0.27746],[0,0]]],&quot;closed&quot;:true,&quot;fillColor&quot;:[0,0,0,1]}]}" fill="#352a25" stroke="none" stroke-width="0.5" stroke-linecap="butt"/><path d="M239.21295,159.52546c-0.19423,0.98095 -1.17518,0.78674 -1.17518,0.78674l-0.73572,-0.14567c-1.17738,-0.23312 -1.70604,-0.41736 -2.88311,-0.14355c0,0 -0.97816,0.2079 -1.18604,-0.77026c-0.2079,-0.97816 0.77026,-1.18604 0.77026,-1.18604c1.45513,-0.28822 2.26278,-0.1441 3.68734,0.13795l0.73572,0.14567c0,0 0.98095,0.19423 0.78674,1.17518z" fill="#000000" stroke="none" stroke-width="0.5" stroke-linecap="butt"/></g></g></svg>