<svg version="1.1" xmlns="http://www.w3.org/2000/svg" xmlns:xlink="http://www.w3.org/1999/xlink" width="742" height="577" viewBox="0,0,742,577"><defs><radialGradient cx="354.86486" cy="130.45046" r="175.26712" gradientUnits="userSpaceOnUse" id="color-1"><stop offset="0" stop-color="#ffffff"/><stop offset="1" stop-color="#6b6b6b"/></radialGradient><radialGradient cx="341.35135" cy="137.95797" r="142.33333" gradientUnits="userSpaceOnUse" id="color-2"><stop offset="0" stop-color="#bcbcbc"/><stop offset="1" stop-color="#3c3c3c"/></radialGradient><linearGradient x1="126.16091" y1="151.98921" x2="126.16091" y2="219.86359" gradientUnits="userSpaceOnUse" id="color-3"><stop offset="0" stop-color="#fff800"/><stop offset="1" stop-color="#ff7300"/></linearGradient><linearGradient x1="158.7493" y1="163.74973" x2="158.7493" y2="218.72767" gradientUnits="userSpaceOnUse" id="color-4"><stop offset="0" stop-color="#fff800"/><stop offset="1" stop-color="#ff7300"/></linearGradient><linearGradient x1="193.14574" y1="157.44205" x2="193.14574" y2="220.13328" gradientUnits="userSpaceOnUse" id="color-5"><stop offset="0" stop-color="#fff800"/><stop offset="1" stop-color="#ff7300"/></linearGradient><linearGradient x1="310.14574" y1="157.44205" x2="310.14574" y2="220.13328" gradientUnits="userSpaceOnUse" id="color-6"><stop offset="0" stop-color="#fff800"/><stop offset="1" stop-color="#ff7300"/></linearGradient><linearGradient x1="351.9892" y1="154.73921" x2="351.9892" y2="222.61139" gradientUnits="userSpaceOnUse" id="color-7"><stop offset="0" stop-color="#fff800"/><stop offset="1" stop-color="#ff7300"/></linearGradient><linearGradient x1="233.03939" y1="162.18641" x2="233.03939" y2="218.97767" gradientUnits="userSpaceOnUse" id="color-8"><stop offset="0" stop-color="#fff800"/><stop offset="1" stop-color="#ff7300"/></linearGradient><linearGradient x1="274.3698" y1="156.23921" x2="274.3698" y2="222.01692" gradientUnits="userSpaceOnUse" id="color-9"><stop offset="0" stop-color="#fff800"/><stop offset="1" stop-color="#ff7300"/></linearGradient></defs><g transform="translate(136,96.16667)"><g data-paper-data="{&quot;isPaintingLayer&quot;:true}" fill-rule="nonzero" stroke-linejoin="miter" stroke-miterlimit="10" stroke-dasharray="" stroke-dashoffset="0" style="mix-blend-mode: normal"><path d="M-136,480.83334v-577h742v577z" fill="#ffffff" stroke="none" stroke-width="0" stroke-linecap="butt"/><path d="M415.26712,180.00001c0,48.73871 -78.46976,88.24925 -175.26712,88.24925c-96.79735,0 -175.26712,-39.51054 -175.26712,-88.24925c0,-48.73871 78.46976,-88.24925 175.26712,-88.24925c96.79735,0 175.26712,39.51054 175.26712,88.24925z" fill="url(#color-1)" stroke="#000000" stroke-width="0" stroke-linecap="butt"/><path d="M378.33484,175.79881c0,39.58041 -63.7248,71.66666 -142.33333,71.66666c-78.60853,0 -142.33333,-32.08626 -142.33333,-71.66666c0,-39.58041 63.72481,-71.66667 142.33334,-71.66667c78.60853,0 142.33333,32.08626 142.33333,71.66667z" fill="url(#color-2)" stroke="#000000" stroke-width="0" stroke-linecap="butt"/><path d="M270.05751,119.92399c1.22897,2.68874 4.87814,9.7557 6.86859,13.50115c2.65997,5.00531 3.23539,16.37116 3.23539,16.37116c0,0 -3.60229,7.36142 -5.20253,9.95642c-1.02721,1.66575 -3.46715,4.10252 -3.46715,4.10252c0,0 -1.1686,1.00471 -2.90418,1.46843c-4.32145,1.15463 -8.64331,4.4849 -12.58279,5.02085c-1.32591,0.18039 -7.00733,1.24314 -7.00733,1.24314c0,0 -7.2122,-0.33909 -10.3168,-0.41302c-1.13936,-0.02713 -6.55393,-1.46152 -6.55393,-1.46152l-21.79136,-6.32652c0,0 -4.87714,-4.4206 -7.20081,-6.43512c-3.47799,-3.01529 -3.29442,-8.18352 -3.29442,-8.18352c0,0 2.15383,-11.65646 4.96495,-16.70082c3.22485,-5.7868 11.71833,-14.83806 11.71833,-14.83806l5.0591,-16.40475c0,0 0.6659,-3.54472 1.59552,-2.4173c1.93561,2.34744 9.41732,15.7733 9.41732,15.7733h21.79136c0,0 5.30851,-13.00098 6.94799,-16.45252c1.00292,-2.1114 1.95601,3.33085 1.95601,3.33085c0,0 4.69994,14.34358 6.76675,18.86534z" fill="#e8cea9" stroke="none" stroke-width="0" stroke-linecap="round"/><path d="M214.32753,155.81034c0.82553,3.69287 29.99657,11.9421 30.56319,14.67875c0.62602,3.02354 -23.39664,-3.82013 -26.19702,-4.03817c-2.29335,-0.17856 -6.17972,-0.68765 -7.73477,-2.08183c-2.3811,-2.13478 -5.8028,-3.38605 -7.23745,-6.14474c-3.09408,-5.94961 -2.55923,-15.79543 -0.82441,-22.04586c0.68621,-2.47234 10.33464,-13.24806 10.35332,-13.25046c1.49863,-0.19219 -3.02159,11.6754 -3.05097,19.46384c-0.01857,4.92365 3.36461,10.00296 4.12813,13.41848z" fill="#c7b191" stroke="none" stroke-width="0.5" stroke-linecap="butt"/><path d="M236.27079,153.23425c1.66712,-0.25202 7.48166,-11.53463 8.71569,-11.70133c1.36341,-0.18418 -2.34049,9.05828 -2.52455,10.29623c-0.15073,1.0138 -1.38693,2.66317 -2.05501,3.31099c-1.02298,0.99194 -2.12232,2.33167 -3.39318,2.8835c-2.7408,1.19013 -7.32273,0.63045 -10.04699,-0.33516c-1.07757,-0.38194 -3.51161,-1.36208 -3.55222,-2.8143c-0.00015,-0.00536 -0.00035,-0.01076 -0.0006,-0.01617c-0.0608,-0.17786 -0.10013,-0.37052 -0.11402,-0.57408c-0.00057,-0.00834 -0.00109,-0.01668 -0.00158,-0.02506c-0.03879,-0.6721 3.41872,0.13732 6.87966,0.39274c2.18792,0.16147 4.55088,-1.18424 6.09279,-1.41734z" fill="#c7b191" stroke="none" stroke-width="0.5" stroke-linecap="butt"/><path d="M255.27796,155.58887c3.46095,-0.25542 6.91845,-1.06484 6.87966,-0.39274c-0.00049,0.00838 -0.00101,0.01673 -0.00159,0.02506c-0.01389,0.20355 -0.05321,0.39621 -0.11402,0.57409c-0.00025,0.00543 -0.00045,0.01081 -0.0006,0.01617c-0.0406,1.45222 -2.47465,2.43237 -3.55221,2.8143c-2.72425,0.96561 -7.30617,1.52528 -10.04698,0.33515c-1.27085,-0.55184 -2.3702,-1.89155 -3.39318,-2.88349c-0.66808,-0.64781 -1.90428,-2.29718 -2.05501,-3.31098c-0.18407,-1.23795 -3.88795,-10.4804 -2.52454,-10.29623c1.23403,0.1667 7.04856,11.44932 8.71568,11.70134c1.54191,0.2331 3.90488,1.57881 6.0928,1.41734z" data-paper-data="{&quot;index&quot;:null}" fill="#c7b191" stroke="none" stroke-width="0.5" stroke-linecap="butt"/><g stroke="none" stroke-width="0.5" stroke-linecap="butt"><path d="M235.13773,142.53251c1.19618,-1.47899 1.93055,-2.8896 3.10983,-3.72429c0.61041,-0.43205 1.34001,-0.7098 2.31458,-0.76286c2.2617,-0.12315 4.53056,-0.04523 6.79516,0c3.6253,0.07242 5.5357,3.85077 3.37878,6.69434c-2.47333,3.26068 -7.63776,3.73914 -11.09408,2.04871c-0.91759,-0.44878 -3.37552,-0.77978 -3.57364,-1.77041z" fill="#000000"/><path d="M237.91056,142.64291c0.7943,-0.98209 1.28193,-1.91876 2.065,-2.47301c0.40533,-0.28689 0.8898,-0.47133 1.53693,-0.50656c1.50182,-0.08177 3.00839,-0.03003 4.51214,0c2.40729,0.04808 3.67584,2.55701 2.24358,4.4452c-1.64235,2.16518 -5.07165,2.48288 -7.36673,1.36039c-0.60931,-0.298 -2.24142,-0.5178 -2.37298,-1.17559z" fill="#a72a49"/><path d="M248.96057,142.86553c-0.80164,1.60327 -2.40491,0.80164 -2.40491,0.80164l-0.35796,-0.29323c-0.62484,-0.0781 -1.24968,-0.15621 -1.87453,-0.23432c0,0 -1.77868,-0.22233 -1.55634,-2.001c0.22233,-1.77867 2.00101,-1.55635 2.00101,-1.55635c0.62484,0.0781 1.24968,0.15622 1.87453,0.23432l1.51657,0.64403c0,0 1.60327,0.80164 0.80163,2.40491z" fill="#d1748b"/></g><path d="M216.66194,136.32316c0,-5.62929 4.56345,-10.19273 10.19273,-10.19273c5.62929,0 10.19273,4.56345 10.19273,10.19273c0,5.62929 -4.56344,10.19273 -10.19273,10.19273c-5.62929,0 -10.19273,-4.56345 -10.19273,-10.19273z" fill="#000000" stroke="none" stroke-width="0" stroke-linecap="butt"/><path d="M248.06024,136.32316c0,-5.62929 4.56345,-10.19273 10.19273,-10.19273c5.62928,0 10.19273,4.56345 10.19273,10.19273c0,5.62929 -4.56344,10.19273 -10.19273,10.19273c-5.62929,0 -10.19273,-4.56345 -10.19273,-10.19273z" fill="#000000" stroke="none" stroke-width="0" stroke-linecap="butt"/><path d="M229.96732,131.80352c0,-0.98998 0.80254,-1.79252 1.79252,-1.79252c0.98998,0 1.79251,0.80254 1.79251,1.79252c0,0.98998 -0.80253,1.79252 -1.79251,1.79252c-0.98998,0 -1.79252,-0.80254 -1.79252,-1.79252z" fill="#ffffff" stroke="none" stroke-width="0.5" stroke-linecap="butt"/><path d="M261.63509,131.20601c0,-0.98998 0.80253,-1.79251 1.79251,-1.79251c0.98998,0 1.79252,0.80253 1.79252,1.79251c0,0.98998 -0.80254,1.79252 -1.79252,1.79252c-0.98998,0 -1.79251,-0.80254 -1.79251,-1.79252z" fill="#ffffff" stroke="none" stroke-width="0.5" stroke-linecap="butt"/><path d="M109.47989,160.58464c-0.35376,-1.58729 -0.55433,-3.28606 0.01961,-4.61164c1.95594,-4.51748 5.65978,-3.96845 9.60916,-3.95747c6.96539,0.01936 12.45484,2.06623 16.42266,7.9663c1.77865,2.96443 3.60569,5.92783 5.54579,8.7896c0.67531,0.99613 1.84728,1.78981 2.04203,2.97741c0.22233,1.35582 -0.14691,2.84885 -0.90107,4.15765c0.17223,0.33936 0.26931,0.72329 0.26931,1.12989c0,0.48518 -0.13821,0.93808 -0.37741,1.32148l-1.35002,2.25004c-2.07547,4.10971 -3.04426,5.23233 -7.65714,6.19952c-0.18798,-0.04461 -0.40024,-0.09824 -0.6315,-0.15716c-0.56913,0.02796 -1.24204,-0.01218 -1.94571,-0.09146l-2.25858,0.61598c-0.22596,0.06712 -0.46529,0.10315 -0.71304,0.10315c-0.71178,0 -0.88811,0.76274 -0.66698,1.43513c0.83486,2.53848 1.02969,3.45915 0.81095,6.14227c-0.38262,4.69332 -0.92624,9.09491 -0.92827,13.85102c-0.00083,1.94207 0.74758,3.96023 0.19781,5.82287c-0.47385,1.60541 -1.10879,3.40389 -2.47695,4.36826c-0.93671,0.66026 -2.29357,-0.3344 -3.43206,-0.20318c-1.29313,0.14904 -2.60248,1.61638 -3.76601,1.03279c-3.74053,-1.87611 -3.1437,-9.16218 -3.7131,-12.57859c-0.33759,-3.72559 -0.66738,-7.3964 -0.94869,-11.12022c-0.20606,-2.72776 -1.39971,-5.2489 -1.64373,-7.99445c-0.49061,-5.51993 -0.01366,-11.27376 -0.69017,-16.76502c-0.45303,-3.67722 -0.9055,-7.10342 -0.8169,-10.68419zM133.13248,177.32074c-0.37609,-0.92684 -0.50839,-2.06161 -0.89802,-2.97068c-1.68744,-3.93713 -3.4034,-7.51496 -6.44824,-10.5598c-0.82264,-0.82264 -0.70444,-2.03473 -1.8354,-2.30754c-0.80941,-0.19524 -1.57731,1.06368 -1.97611,1.79459c-0.4579,0.83923 -0.68727,3.51632 -0.68727,3.51632c-0.18777,2.73369 -1.31178,5.12621 -1.09661,7.9051c0.04811,0.62137 -0.11104,2.54279 0.66202,3.16002c0.83865,0.66959 3.71483,-0.47568 3.83772,-0.49118c1.3793,-0.17406 6.18603,-0.44874 8.44189,-0.04683z" fill="url(#color-3)" stroke="none" stroke-width="0.5" stroke-linecap="butt"/><path d="M113.86697,217.15168c0,0 -0.64001,-15.21237 -2.47432,-30.03047c-0.80963,-6.54047 -2.49295,-31.39344 -2.49295,-31.39344c0,0 2.14353,-2.7536 3.68935,-2.96428c4.71216,-0.64221 14.06587,-1.16453 18.2705,1.33284c5.86005,3.48062 12.88132,19.9356 12.88132,19.9356c0,0 -2.19635,8.70643 -4.52925,11.52903c-2.32328,2.81097 -8.1249,2.04818 -10.42186,1.73305c-0.56976,-0.07817 -1.28833,0.8027 -1.29439,1.2405c-0.05563,4.01837 -0.18638,24.2142 -0.46847,28.33038c-0.09277,1.35369 -2.29176,2.86731 -2.29176,2.86731c0,0 -7.86729,0.99103 -9.80792,0.53025c-0.98691,-0.23433 -1.06023,-3.11077 -1.06023,-3.11077z" fill="none" stroke="#000000" stroke-width="2.5" stroke-linecap="round"/><path d="M123.56593,163.66464c0,0 0.68793,-1.35813 1.30645,-0.46999c1.07714,1.54666 5.99275,8.23822 7.93187,11.70816c0.78905,1.41196 -0.08923,1.899 -0.08923,1.899c0,0 -10.00434,2.1272 -11.92723,2.38605c-0.70474,0.09487 -0.27157,-0.74391 -0.27157,-0.74391z" fill="none" stroke="#000000" stroke-width="2.5" stroke-linecap="round"/><path d="M168.62429,174.72767c0,0 -1.23292,1.96882 -2.31055,1.92296c-2.49705,-0.10626 -6.84495,-0.29128 -8.21385,-0.34953c-0.81306,-0.0346 -1.7256,1.67657 -1.7256,1.67657l0.5,10.5c0,0 1.10971,1.56504 2.67568,1.30405c3.0096,-0.50159 7.70443,-1.28407 9.44595,-1.57432c1.29021,-0.21503 2.87838,0.77027 2.87838,0.77027c0,0 0,3.58059 0,5c0,1.05266 -1.5,3.25 -1.5,3.25c0,0 -9.36558,0 -11.75,0c-1.04341,0 -2.5,1.25 -2.5,1.25c0,0 -0.14584,7.43745 -0.1913,9.75605c-0.02518,1.28443 2.1913,2.74395 2.1913,2.74395c0,0 8.31215,-0.90678 10.78528,-1.17658c1.29665,-0.14145 2.96472,1.42658 2.96472,1.42658c0,0 -0.5811,4.21296 -0.76313,5.53267c-0.10141,0.73525 -2.73687,1.96733 -2.73687,1.96733c0,0 -16.0725,0 -19.5,0c-1.22724,0 -3.25,-2 -3.25,-2l1.25,-49.25c0,0 1.10855,-1.59756 2.47132,-1.75242c4.54173,-0.51611 14.68386,-1.66862 17.31056,-1.96711c1.21391,-0.13794 2.21813,1.46953 2.21813,1.46953z" fill="url(#color-4)" stroke="#000000" stroke-width="2.5" stroke-linecap="round"/><path d="M181.005,206.5412c-1.67924,-0.66024 -4.01455,-0.4945 -5.03772,-1.98073c-0.87882,-1.27656 0.23694,-3.09462 0.49121,-4.62344c0.5141,-3.09093 1.68769,-5.68613 3.14035,-8.40703c1.77626,-3.32701 3.08556,-6.8921 5.2998,-9.98158c0.57855,-0.80723 2.5677,-2.81781 2.97392,-3.96706c0.61344,-1.73549 0.40589,-3.73228 1.21041,-5.38788c1.94323,-3.99891 4.86305,-7.6442 6.9942,-11.60609c0,0 0.2105,-0.39092 0.61882,-0.75457c0.05718,-1.33003 1.15354,-2.39077 2.49766,-2.39077c0.81654,0 1.54165,0.39147 1.9979,0.99696l1.81426,2.35853l-0.30214,0.23242c0.1595,-0.00298 0.30994,0.04069 0.44722,0.15209c0.83093,0.67426 0.36722,2.10855 0.53129,3.16598c0.19278,1.24243 0.29133,2.46259 0.34141,3.68268c1.38793,1.8869 1.35072,7.11967 1.81516,9.10057c1.11865,4.77117 1.30927,9.20962 1.87919,14.00872c0.32512,2.73775 0.61147,5.37239 1.07821,8.09844c0.47751,2.78893 1.31823,5.48547 1.31823,8.29899c0,1.99256 -0.09333,3.98676 -0.01217,5.97767c0.05615,1.37743 1.00135,2.94487 0.2897,4.12555c-1.51431,2.51236 -3.21036,2.7909 -4.9387,2.27903l-0.02298,0.16088l-2.52644,-0.36092c-1.22035,-0.15451 -2.16641,-1.18875 -2.18262,-2.4472c-0.5999,-0.99596 -0.58079,-2.62342 -0.90132,-3.79417c-0.61454,-2.24469 -0.0637,-4.92797 -0.80421,-7.17301c-0.33515,-1.0161 -1.555,-1.83473 -1.39218,-2.89222c0.06751,-0.43843 -3.44213,-1.65774 -6.80396,-1.08693c-3.91097,0.66404 -7.88063,3.23326 -9.8145,4.21508zM198.50927,194.34275l-0.03109,-0.46638l2.72157,-0.18144c0.06292,-0.00474 0.12648,-0.00716 0.19061,-0.00716c0.01174,0 0.02347,0.00008 0.03517,0.00024c-0.65136,-4.08024 -2.606,-12.02475 -2.96412,-12.02475c-0.93821,0 -1.75571,-0.51682 -2.18334,-1.28129l-0.408,-0.69943c-0.36491,0.29745 -0.78942,0.59662 -1.26649,0.90316c-0.2946,0.18929 -0.63337,0.27804 -0.9837,0.34175c-0.12678,0.33945 -0.26864,0.67501 -0.42991,1.00555c-1.09613,2.2466 -2.77246,4.35562 -4.26747,6.51416c-0.0265,0.1684 -0.05352,0.33242 -0.08183,0.49108c-0.15346,0.86009 -0.29633,1.72655 -0.54918,2.56283c-0.11746,0.3885 -0.69501,0.70404 -0.5536,1.08447c0.12982,0.34925 0.70307,0.26916 1.07308,0.31303c1.89021,0.22408 3.81379,0.4678 5.5963,1.13546c0.18139,0.06794 0.36324,0.13579 0.54562,0.20292h0.11525c1.14252,-0.11793 2.29497,-0.06263 3.44113,0.1058z" fill="url(#color-5)" stroke="none" stroke-width="2.5" stroke-linecap="butt"/><path d="M175.22395,205.54347c0,0 -0.94798,-1.43782 -0.17684,-3.03506c2.8904,-5.98683 19.17882,-41.41242 19.17882,-41.41242c0,0 3.25908,-2.80978 4.46608,-2.75624c3.56971,0.15833 4.1993,1.30452 4.67508,3.31041c3.38933,14.28927 5.71759,50.22907 6.90205,55.60186c0.33511,1.52009 -0.79471,3.27099 -0.79471,3.27099c0,0 -5.34725,0.6362 -7.22571,0.80719c-0.87484,0.07963 -2.39258,-1.29832 -2.39258,-1.29832l-3.0497,-17.92633l-7.03777,-0.49114c0,0 -4.46803,3.8376 -5.94761,4.76687c-0.78232,0.49134 -2.26313,0.39002 -2.26313,0.39002z" fill="none" stroke="#000000" stroke-width="2.5" stroke-linecap="round"/><path d="M194.77725,179.52505c0,0 0.94482,-1.01846 1.26416,-0.08391c0.55613,1.62749 3.18625,8.73291 4.01512,12.26416c0.33727,1.43691 -0.55558,1.64339 -0.55558,1.64339c0,0 -9.31057,-0.64854 -11.0624,-0.90479c-0.64205,-0.09392 -0.05125,-0.72083 -0.05125,-0.72083z" fill="none" stroke="#000000" stroke-width="2.5" stroke-linecap="round"/><path d="M298.005,206.5412c-1.67924,-0.66024 -4.01455,-0.4945 -5.03772,-1.98073c-0.87882,-1.27656 0.23694,-3.09462 0.49121,-4.62344c0.5141,-3.09093 1.68769,-5.68613 3.14035,-8.40703c1.77626,-3.32701 3.08556,-6.8921 5.2998,-9.98158c0.57855,-0.80723 2.5677,-2.81781 2.97392,-3.96706c0.61344,-1.73549 0.40589,-3.73228 1.21041,-5.38788c1.94323,-3.99891 4.86305,-7.6442 6.9942,-11.60609c0,0 0.2105,-0.39092 0.61882,-0.75457c0.05718,-1.33003 1.15354,-2.39077 2.49766,-2.39077c0.81654,0 1.54165,0.39147 1.9979,0.99696l1.81426,2.35853l-0.30214,0.23242c0.1595,-0.00298 0.30994,0.04069 0.44722,0.15209c0.83093,0.67426 0.36722,2.10855 0.53129,3.16598c0.19278,1.24243 0.29133,2.46259 0.34141,3.68268c1.38793,1.8869 1.35072,7.11967 1.81516,9.10057c1.11865,4.77117 1.30927,9.20962 1.87919,14.00872c0.32512,2.73775 0.61147,5.37239 1.07821,8.09844c0.47751,2.78893 1.31823,5.48547 1.31823,8.29899c0,1.99256 -0.09333,3.98676 -0.01217,5.97767c0.05615,1.37743 1.00135,2.94487 0.2897,4.12555c-1.51431,2.51236 -3.21036,2.7909 -4.9387,2.27903l-0.02298,0.16088l-2.52644,-0.36092c-1.22035,-0.15451 -2.16641,-1.18875 -2.18262,-2.4472c-0.5999,-0.99596 -0.58079,-2.62342 -0.90132,-3.79417c-0.61454,-2.24469 -0.0637,-4.92797 -0.80421,-7.17301c-0.33515,-1.0161 -1.555,-1.83473 -1.39218,-2.89222c0.06751,-0.43843 -3.44213,-1.65774 -6.80396,-1.08693c-3.91097,0.66404 -7.88063,3.23326 -9.8145,4.21508zM315.50927,194.34275l-0.03109,-0.46638l2.72157,-0.18144c0.06292,-0.00474 0.12648,-0.00716 0.19061,-0.00716c0.01174,0 0.02347,0.00008 0.03517,0.00024c-0.65136,-4.08024 -2.606,-12.02475 -2.96412,-12.02475c-0.93821,0 -1.75571,-0.51682 -2.18334,-1.28129l-0.408,-0.69943c-0.36491,0.29745 -0.78942,0.59662 -1.26649,0.90316c-0.2946,0.18929 -0.63337,0.27804 -0.9837,0.34175c-0.12678,0.33945 -0.26864,0.67501 -0.42991,1.00555c-1.09613,2.2466 -2.77246,4.35562 -4.26747,6.51416c-0.0265,0.1684 -0.05352,0.33242 -0.08183,0.49108c-0.15346,0.86009 -0.29633,1.72655 -0.54918,2.56283c-0.11746,0.3885 -0.69501,0.70404 -0.5536,1.08447c0.12982,0.34925 0.70307,0.26916 1.07308,0.31303c1.89021,0.22408 3.81379,0.4678 5.5963,1.13546c0.18139,0.06794 0.36324,0.13579 0.54562,0.20292h0.11525c1.14252,-0.11793 2.29497,-0.06263 3.44113,0.1058z" fill="url(#color-6)" stroke="none" stroke-width="2.5" stroke-linecap="butt"/><path d="M292.47395,205.54347c0,0 -0.94798,-1.43782 -0.17684,-3.03506c2.8904,-5.98683 19.17882,-41.41242 19.17882,-41.41242c0,0 3.25908,-2.80978 4.46608,-2.75624c3.56971,0.15833 4.1993,1.30452 4.67508,3.31041c3.38933,14.28927 5.71759,50.22907 6.90205,55.60186c0.33511,1.52009 -0.79471,3.27099 -0.79471,3.27099c0,0 -5.34725,0.6362 -7.22571,0.80719c-0.87484,0.07963 -2.39258,-1.29832 -2.39258,-1.29832l-3.0497,-17.92633l-7.03777,-0.49114c0,0 -4.46803,3.8376 -5.94761,4.76687c-0.78232,0.49134 -2.26313,0.39002 -2.26313,0.39002z" fill="none" stroke="#000000" stroke-width="2.5" stroke-linecap="round"/><path d="M312.02725,179.52505c0,0 0.94482,-1.01846 1.26416,-0.08391c0.55613,1.62749 3.18625,8.73291 4.01512,12.26416c0.33727,1.43691 -0.55558,1.64339 -0.55558,1.64339c0,0 -9.31057,-0.64854 -11.0624,-0.90479c-0.64205,-0.09392 -0.05125,-0.72083 -0.05125,-0.72083z" fill="none" stroke="#000000" stroke-width="2.5" stroke-linecap="round"/><path d="M334.70444,162.95762c-0.33824,-1.51766 -0.53001,-3.14192 0.01875,-4.40936c1.87014,-4.31933 5.41153,-3.79439 9.18768,-3.78388c6.65987,0.01851 12.65854,1.2256 16.45232,6.86688c1.70063,2.8344 3.78087,5.83449 5.63587,8.57073c0.64569,0.95244 0.68291,2.29463 0.86912,3.43014c0.08406,0.51264 1.83948,2.75793 0.98332,5.1581c-1.30887,3.66932 -5.47978,8.00452 -5.64348,9.44694c-0.14999,1.32154 -8.30289,4.7438 -8.00003,6.16962c0.09996,0.4706 1.46654,-0.08104 2.58456,0.14709c2.93856,0.5996 7.53616,1.52185 8.17505,2.64526c1.08047,1.89987 2.93537,4.56138 3.76631,6.71095c2.23832,5.7903 0.77543,12.42251 0.86411,12.69216c0.15578,0.47366 -7.72351,3.44533 -13.26657,5.24331c-1.72048,0.55806 -7.08923,-3.12258 -6.02426,-6.3406c0.35534,-1.07374 6.01534,-1.9163 8.04884,-3.44293c1.10179,-2.54187 -1.02715,-0.06329 0.87,-2.99257c-0.23019,-3.2229 -1.48176,-5.41183 -3.85315,-6.09691c-1.11419,-0.32188 -2.92275,1.67339 -3.33637,1.71922c-0.53046,0.05877 -0.95916,2.82539 -0.75609,4.4959c0.18826,1.54864 0.95963,1.93435 1.70968,3.7733c2.74494,6.72996 5.70342,10.49025 5.35621,8.40699c-0.08141,-0.89837 -0.41245,1.13139 -4.46187,1.23962c-4.04163,0.10802 -12.80691,-0.80653 -15.65246,-3.9303c-2.57355,-2.82518 -1.29404,-7.56842 -0.86932,-11.73588c0.5008,-4.91402 0.42655,-9.13903 0.35435,-10.09479c-0.19702,-2.60811 0.24502,-5.352 0.0117,-7.97713c-0.46909,-5.27781 -1.5964,-10.44593 -2.24323,-15.69633c-0.43316,-3.51593 -0.86579,-6.79184 -0.78107,-10.21555zM358.40291,178.04297c-0.3596,-0.88619 -0.48609,-1.97118 -0.85863,-2.84038c-1.61343,-3.76443 -3.25411,-7.18534 -6.1654,-10.09662c-0.78656,-0.78655 -0.67354,-1.94548 -1.7549,-2.20633c-0.77391,-0.18668 -1.50813,1.01703 -1.88943,1.71588c-0.43782,0.80242 -0.65713,3.36209 -0.65713,3.36209c-0.07975,1.16105 -4.4698,7.78841 -3.75684,9.79324c0.89207,2.5085 6.9454,0.32514 7.01071,0.3169c1.3188,-0.16643 5.9147,-0.42906 8.07161,-0.04478z" fill="url(#color-7)" stroke="none" stroke-width="0.5" stroke-linecap="butt"/><path d="M336.3991,211.79348c0,0 3.13806,-10.04512 1.38421,-24.21326c-0.77412,-6.25359 -2.3836,-30.01645 -2.3836,-30.01645c0,0 2.04951,-2.63281 3.52753,-2.83425c4.50547,-0.61404 13.44891,-1.11346 17.46911,1.27437c5.60302,3.32795 12.31631,19.06117 12.31631,19.06117c0,0 -2.10001,8.32454 -4.33058,11.02334c-1.199,1.45068 -4.37344,4.03106 -7.28244,5.5662c-2.4805,1.30902 -4.83622,1.65338 -4.86783,2.11465c-0.01689,0.24651 10.76645,-0.59973 14.04419,4.1236c3.09526,4.46036 4.65846,10.67866 4.07682,16.84423c-1.5754,1.89736 -3.48741,4.01782 -6.85667,5.30857c-5.79615,2.22047 -13.45558,2.96515 -13.45558,2.96515c0,0 -7.02221,-1.30244 -8.87772,-1.74301c-0.94362,-0.22405 -5.01374,-5.22432 -5.01374,-5.22432z" fill="none" stroke="#000000" stroke-width="2.5" stroke-linecap="round"/><path d="M349.65098,163.19699c0,0 1.02283,-1.22101 1.51897,-0.22748c0.86401,1.73019 4.88063,9.2624 6.29841,13.05692c0.57691,1.54404 -0.47859,1.86659 -0.47859,1.86659c0,0 -11.33623,0.28266 -13.485,0.18825c-0.78753,-0.0346 -0.14677,-0.78717 -0.14677,-0.78717z" fill="none" stroke="#000000" stroke-width="2.5" stroke-linecap="round"/><path d="M356.45055,203.64591c1.04877,0.80038 2.79314,4.21933 2.79314,4.21933c0,0 -1.82347,3.84956 -2.36199,4.98642c-0.27988,0.59086 -1.97135,0.51358 -1.97135,0.51358c0,0 -2.70497,-1.35086 -3.25863,-3.88604c-0.49541,-2.26844 1.75864,-5.61396 1.75864,-5.61396c0,0 1.97802,-1.02993 3.04019,-0.21933z" fill="none" stroke="#000000" stroke-width="2.5" stroke-linecap="round"/><path d="M270.05751,119.92399c1.22897,2.68874 4.87814,9.7557 6.86859,13.50115c2.65997,5.00531 3.23539,16.37116 3.23539,16.37116c0,0 -3.60229,7.36142 -5.20253,9.95642c-1.02721,1.66575 -3.46715,4.10252 -3.46715,4.10252c0,0 -1.1686,1.00471 -2.90418,1.46843c-4.32145,1.15463 -8.64331,4.4849 -12.58279,5.02085c-1.32591,0.18039 -7.00733,1.24314 -7.00733,1.24314c0,0 -7.2122,-0.33909 -10.3168,-0.41302c-1.13936,-0.02713 -6.55393,-1.46152 -6.55393,-1.46152l-21.79136,-6.32652c0,0 -4.87714,-4.4206 -7.20081,-6.43512c-3.47799,-3.01529 -3.29442,-8.18352 -3.29442,-8.18352c0,0 2.15383,-11.65646 4.96495,-16.70082c3.22485,-5.7868 11.71833,-14.83806 11.71833,-14.83806l5.0591,-16.40475c0,0 0.6659,-3.54472 1.59552,-2.4173c1.93561,2.34744 9.41732,15.7733 9.41732,15.7733h21.79136c0,0 5.30851,-13.00098 6.94799,-16.45252c1.00292,-2.1114 1.95601,3.33085 1.95601,3.33085c0,0 4.69994,14.34358 6.76675,18.86534z" fill="none" stroke="#000000" stroke-width="2.5" stroke-linecap="round"/><path d="M239.37432,162.22768c0,0 2.42579,0.9914 2.99676,2.25147c1.25289,2.76501 6.00324,13.49853 6.00324,13.49853c0,0 -0.58892,2.1551 -2.22913,2.01152c-4.24574,-0.37167 -12.18541,-1.06955 -14.49383,-1.29205c-0.49422,-0.04764 -1.43772,0.42812 -2.05956,1.2561c-0.79184,1.05433 -1.21748,2.52442 -1.21748,2.52442c0,0 -0.55299,4.53742 -0.60795,9.25166c-0.04696,4.02828 0.40464,8.18566 0.38664,9.75155c-0.01407,1.22381 0.7213,1.99679 0.7213,1.99679c0,0 0.98644,0.68648 2.49565,0.63126c2.5507,-0.09332 10.63296,-0.38901 14.76682,-0.54025c1.50567,-0.05509 3.23753,2.65899 3.23753,2.65899c0,0 -0.52154,6.43356 -0.97008,9.21451c-0.23263,1.44229 -2.27992,3.53549 -2.27992,3.53549c0,0 -13.06188,-0.4945 -17.79203,-2.3954c-0.45145,-0.18142 -2.41834,-0.4244 -2.89175,-0.71317c-3.82026,-2.33019 -6.56622,-7.64143 -6.56622,-7.64143c0,0 -1.96113,-6.70627 -2.15936,-13.73846c-0.17538,-6.22155 1.90936,-12.69822 1.90936,-15.01154c0,-1.5269 1.5,-7 1.5,-7c0,0 6.05443,-6.69382 9.82338,-8.77324c3.45342,-1.90534 9.42662,-1.47676 9.42662,-1.47676z" fill="url(#color-8)" stroke="#000000" stroke-width="2.5" stroke-linecap="round"/><path d="M257.95444,164.45762c-0.33824,-1.51766 -0.53001,-3.14192 0.01875,-4.40936c1.87014,-4.31933 5.41153,-3.79439 9.18768,-3.78388c6.65987,0.01851 11.90854,1.9756 15.70232,7.61688c1.70063,2.8344 3.44754,5.66782 5.30254,8.40407c0.64569,0.95244 1.76625,1.7113 1.95246,2.84681c0.21258,1.29635 -0.14047,2.72389 -0.86154,3.97529c0.16467,0.32448 0.2575,0.69156 0.2575,1.08033c0,0.4639 -0.13215,0.89694 -0.36086,1.26352l-1.2908,2.15134c-0.89502,1.77227 -2.13367,3.74863 -2.40446,6.13456c-0.32959,2.90414 0.53398,6.2947 2.15244,9.14054c3.99095,7.01755 3.36597,18.85479 3.48757,19.22454c0.37246,1.1325 -7.06798,7.01768 -10.67927,1.76626c-2.36403,-3.4377 -2.69415,-20.54106 -3.82841,-22.73615c-0.84651,-1.63823 -2.16927,-1.24206 -2.21695,-0.65725c-0.36584,4.48746 -0.63561,9.69599 -0.63755,14.24348c-0.00079,1.85689 0.21479,4.28653 -0.31087,6.06746c-0.45306,1.53499 0.18985,2.50458 -1.1183,3.42665c-0.89562,0.6313 -2.19297,-0.31973 -3.28152,-0.19427c-1.23641,0.14251 -2.48833,1.54548 -3.60083,0.98749c-3.57646,-1.79382 -5.75581,1.23969 -6.30023,-2.02686c-0.32278,-3.56218 2.11189,-17.07198 1.84292,-20.63246c-0.19702,-2.60811 -1.33832,-5.01866 -1.57163,-7.64379c-0.46909,-5.27781 -0.01306,-10.77926 -0.6599,-16.02966c-0.43316,-3.51593 -0.86579,-6.79184 -0.78107,-10.21555zM280.56957,180.45964c-0.3596,-0.88619 -0.48609,-1.97118 -0.85863,-2.84038c-1.61343,-3.76443 -3.25412,-7.18534 -6.1654,-10.09662c-0.78656,-0.78655 -0.67354,-1.94548 -1.75489,-2.20632c-0.77391,-0.18668 -1.50813,1.01702 -1.88943,1.71587c-0.43782,0.80242 -0.65713,3.36209 -0.65713,3.36209c-0.17953,2.61379 -1.25424,4.90136 -1.04851,7.55836c0.046,0.59411 -0.10616,2.43126 0.63299,3.02141c0.80187,0.64022 3.55189,-0.45481 3.66939,-0.46963c1.3188,-0.16643 5.9147,-0.42906 8.07161,-0.04478z" fill="url(#color-9)" stroke="none" stroke-width="0.5" stroke-linecap="butt"/><path d="M258.3991,216.54349c0,0 3.13806,-12.54512 1.38421,-26.71326c-0.77412,-6.25359 -2.3836,-30.01645 -2.3836,-30.01645c0,0 2.04951,-2.63281 3.52753,-2.83425c4.50547,-0.61404 13.44891,-1.11346 17.46911,1.27437c5.60302,3.32795 12.31631,19.06117 12.31631,19.06117c0,0 -2.10001,8.32454 -4.33058,11.02334c-2.22138,2.68768 -0.81075,4.39269 1.3913,9.23564c2.82513,6.21328 2.4096,21.87225 2.40635,22.10749c-0.01502,1.08465 -2.72433,1.89487 -5.63369,1.51932c-1.34352,-0.17343 -3.31976,0.18702 -4.03536,-1.20536c-1.82608,-3.55313 -2.15125,-21.37194 -3.70191,-23.64815c-1.187,-1.74239 -2.50828,-1.33031 -2.57696,-0.32808c-0.0887,1.29432 -1.69124,24.99154 -1.69124,24.99154c0,0 -10.52221,1.19757 -12.37772,0.757c-0.94362,-0.22405 -2.01374,-3.47433 -2.01374,-3.47433z" fill="none" stroke="#000000" stroke-width="2.5" stroke-linecap="round"/><path d="M271.42263,167.65253c0,0 0.65776,-1.29856 1.24914,-0.44938c1.0299,1.47882 5.72989,7.87687 7.58396,11.19461c0.75444,1.35003 -0.08532,1.81571 -0.08532,1.81571c0,0 -9.56552,2.0339 -11.40407,2.28139c-0.67383,0.09071 -0.25966,-0.71128 -0.25966,-0.71128z" fill="none" stroke="#000000" stroke-width="2.5" stroke-linecap="round"/><text transform="translate(97.47708,332.5116) scale(0.57514,0.26236)" font-size="40" xml:space="preserve" fill="#ffffff" fill-rule="nonzero" stroke="none" stroke-width="1" stroke-linecap="butt" stroke-linejoin="miter" stroke-miterlimit="10" stroke-dasharray="" stroke-dashoffset="0" font-family="Sans Serif" font-weight="normal" text-anchor="start" style="mix-blend-mode: normal"><tspan x="0" dy="0">WHAT ARE YOU DOING HERE</tspan></text><text transform="translate(52.81003,308.12255) scale(0.61282,0.22136)" font-size="40" xml:space="preserve" fill="#f8f8f8" fill-rule="nonzero" stroke="none" stroke-width="1" stroke-linecap="butt" stroke-linejoin="miter" stroke-miterlimit="10" stroke-dasharray="" stroke-dashoffset="0" font-family="Sans Serif" font-weight="normal" text-anchor="start" style="mix-blend-mode: normal"><tspan x="0" dy="0">Why are you reading this none of</tspan><tspan x="0" dy="46.15px">my "work" is copyrighted This is</tspan><tspan x="0" dy="46.15px">just some filler text "Filler" Text</tspan><tspan x="0" dy="46.15px">"Filler", "Filler" Text. </tspan><tspan x="0" dy="46.15px">Copyright Peacrab 2024-2024</tspan></text></g></g></svg>