<svg version="1.1" xmlns="http://www.w3.org/2000/svg" xmlns:xlink="http://www.w3.org/1999/xlink" width="12.37501" height="28.25002" viewBox="0,0,12.37501,28.25002"><g transform="translate(-233.42836,-182.93836)"><g data-paper-data="{&quot;isPaintingLayer&quot;:true}" fill-rule="nonzero" stroke="#000000" stroke-linecap="butt" stroke-linejoin="miter" stroke-miterlimit="10" stroke-dasharray="" stroke-dashoffset="0" style="mix-blend-mode: normal"><path d="M237.96747,183.43837c0.71087,0 2.51814,0 2.95782,0c0.18792,0 0.37807,1.35665 0.37807,2.41718c0,1.33621 0,4.76045 0,6.96719c0,1.16497 -0.17746,1.99063 -0.35583,1.99063c-0.43232,0 -2.26354,0 -2.98006,0c-0.17956,0 -0.28911,-0.90524 -0.28911,-1.70625c0,-1.2146 0,-4.80494 0,-7.25157c0,-1.39432 0.1096,-2.41719 0.28911,-2.41719z" fill="#bfbfbf" stroke-width="1"/><path d="M234.31476,190.63725c0,-2.89949 2.35051,-5.25 5.25,-5.25c2.89949,0 5.25,2.35051 5.25,5.25c0,2.89949 -2.35051,5.25 -5.25,5.25c-2.89949,0 -5.25,-2.35051 -5.25,-5.25z" fill="#45e6bf" stroke-width="1.5"/><path d="M234.55336,208.43837c0,-3.99558 0,-14.15368 0,-16.625c0,-1.05624 1.19266,-2.125 2.125,-2.125c1.17469,0 4.18502,0 6.125,0c1.02415,0 1.75,0.99743 1.75,2c0,2.42995 0,12.72267 0,16.75c0,1.00922 -0.79581,1.625 -1.5,1.625c-1.06777,0 -4.22412,0 -6.375,0c-1.22578,0 -2.125,-0.61601 -2.125,-1.625z" fill="#bfbfbf" stroke-width="1.5"/><path d="M233.92836,191.37395c0,-0.46574 0,-1.64982 0,-1.93788c0,-0.12312 1.35665,-0.2477 2.41719,-0.2477c1.33621,0 4.76045,0 6.96719,0c1.16497,0 1.99063,0.11626 1.99063,0.23313c0,0.28325 0,1.48301 0,1.95245c0,0.11764 -0.90524,0.18942 -1.70625,0.18942c-1.21459,0 -4.80493,0 -7.25156,0c-1.39432,0 -2.41719,-0.0718 -2.41719,-0.18942z" fill="#45e6bf" stroke-width="1"/><path d="M233.92836,210.49896c0,-0.46574 0,-1.64981 0,-1.93788c0,-0.12312 1.35664,-0.2477 2.41718,-0.2477c1.33621,0 4.76045,0 6.96719,0c1.16497,0 1.99063,0.11626 1.99063,0.23313c0,0.28324 0,1.48301 0,1.95246c0,0.11764 -0.90524,0.18941 -1.70625,0.18941c-1.2146,0 -4.80494,0 -7.25156,0c-1.39432,0 -2.41718,-0.0718 -2.41718,-0.18941z" fill="#45e6bf" stroke-width="1"/><path d="M235.51927,186.18377c0,-0.31866 0,-1.12882 0,-1.32592c0,-0.08424 0.96354,-0.16948 1.71677,-0.16948c0.94903,0 3.38105,0 4.94836,0c0.8274,0 1.41382,0.07955 1.41382,0.15951c0,0.1938 0,1.01469 0,1.33589c0,0.08049 -0.64294,0.1296 -1.21184,0.1296c-0.86265,0 -3.41264,0 -5.15033,0c-0.9903,0 -1.71677,-0.04913 -1.71677,-0.1296z" fill="#45e6bf" stroke-width="1"/></g></g></svg>