<svg version="1.1" xmlns="http://www.w3.org/2000/svg" xmlns:xlink="http://www.w3.org/1999/xlink" width="17.77063" height="24.35171" viewBox="0,0,17.77063,24.35171"><g transform="translate(-237.04127,-182.936)"><g data-paper-data="{&quot;isPaintingLayer&quot;:true}" fill-rule="nonzero" stroke="#000000" stroke-width="1.5" stroke-linecap="round" stroke-linejoin="miter" stroke-miterlimit="10" stroke-dasharray="" stroke-dashoffset="0" style="mix-blend-mode: normal"><path d="M244.23313,206.36546c0,0 0.31874,-4.00476 -0.39147,-5.22577c-0.45375,-0.78008 -2.45924,-1.51244 -2.45924,-1.51244c0,0 -3.11104,-1.88898 -3.74267,-2.7617c-0.70074,-0.96819 0.12619,-4.0688 0.12619,-4.0688c0,0 1.26792,-0.02442 2.05372,0.1359c0.26427,0.05392 0.05474,1.21729 0.72959,1.85937c0.47565,0.45256 1.13429,0.2571 1.13429,0.2571c0,0 0.25653,-1.1363 0.09215,-1.86588c-0.69189,-3.07096 -1.21486,-3.77805 -1.64662,-5.69442c-0.17628,-0.78245 -2.72107,-1.85125 -2.03445,-2.02281c0.28136,-0.07031 0.60626,-1.42629 1.38524,-1.78001c1.16988,-0.53122 2.86175,-0.05734 2.9565,0.39695c0.41129,1.97218 2.36776,6.16283 2.36776,6.16283c0,0 2.30532,-0.74942 3.35963,-0.75557c1.35871,-0.00793 3.95009,1.64521 3.90356,2.57193c-0.13014,2.59183 -0.22702,7.42906 -0.06756,9.3542c0.11906,1.4374 1.46945,3.17574 1.46945,3.17574z" fill="#ffd9ad"/><path d="M244.17835,202.48254l7.33858,-1.55088l1.90831,3.46531l-9.31165,1.8929z" fill="#5845ff"/></g></g></svg>